<svg xmlns="http://www.w3.org/2000/svg" xmlns:xlink="http://www.w3.org/1999/xlink" width="2000" zoomAndPan="magnify" viewBox="0 0 1500 1499.999933" height="2000" preserveAspectRatio="xMidYMid meet" version="1.0"><defs><g/><clipPath id="cbeffb0fdd"><path d="M 49.007812 391.617188 L 1450.753906 391.617188 L 1450.753906 1108.617188 L 49.007812 1108.617188 Z M 49.007812 391.617188 " clip-rule="nonzero"/></clipPath><clipPath id="8093b4cd0a"><rect x="0" width="912" y="0" height="518"/></clipPath><clipPath id="32a413492e"><rect x="0" width="560" y="0" height="74"/></clipPath></defs><g clip-path="url(#cbeffb0fdd)"><path fill="#d9d9d9" d="M 747.433594 1107.359375 C 629.460938 1072.046875 504.746094 1065.074219 394.714844 1058.914062 C 365.792969 1057.292969 338.480469 1055.769531 311.460938 1053.796875 C 275.925781 1051.203125 246.65625 1031.460938 237.402344 1004.785156 L 182.179688 1004.785156 L 182.179688 995.753906 C 182.179688 972.1875 163.011719 953.019531 139.445312 953.019531 L 130.414062 953.019531 L 130.414062 882.488281 C 80.769531 858.894531 49.007812 808.957031 49.007812 753.621094 L 49.007812 746.351562 C 49.007812 691.011719 80.769531 641.078125 130.414062 617.496094 L 130.414062 546.964844 L 139.445312 546.964844 C 163.011719 546.964844 182.179688 527.796875 182.179688 504.230469 L 182.179688 495.195312 L 237.402344 495.195312 C 246.65625 468.511719 275.925781 448.777344 311.460938 446.1875 C 338.460938 444.210938 365.773438 442.6875 394.679688 441.074219 C 504.722656 434.914062 629.433594 427.933594 747.425781 392.621094 L 750.015625 391.84375 L 752.605469 392.621094 C 870.597656 427.933594 995.320312 434.914062 1105.351562 441.074219 C 1134.257812 442.695312 1161.570312 444.222656 1188.570312 446.1875 C 1224.105469 448.777344 1253.382812 468.519531 1262.628906 495.195312 L 1317.851562 495.195312 L 1317.851562 504.230469 C 1317.851562 527.796875 1337.019531 546.964844 1360.585938 546.964844 L 1369.617188 546.964844 L 1369.617188 617.496094 C 1419.273438 641.078125 1451.027344 691.023438 1451.027344 746.351562 L 1451.027344 753.621094 C 1451.027344 808.960938 1419.273438 858.894531 1369.617188 882.476562 L 1369.617188 953.007812 L 1360.585938 953.007812 C 1337.019531 953.007812 1317.851562 972.175781 1317.851562 995.742188 L 1317.851562 1004.777344 L 1262.628906 1004.777344 C 1253.382812 1031.460938 1224.105469 1051.195312 1188.570312 1053.785156 C 1161.558594 1055.761719 1134.238281 1057.285156 1105.316406 1058.90625 C 995.285156 1065.066406 870.578125 1072.046875 752.597656 1107.351562 L 750.007812 1108.128906 L 747.414062 1107.351562 Z M 747.433594 1107.359375 " fill-opacity="1" fill-rule="nonzero"/></g><path fill="#52050a" d="M 1360.59375 623.339844 L 1360.59375 556.007812 C 1332.003906 556.007812 1308.828125 532.828125 1308.828125 504.238281 L 1255.761719 504.238281 C 1250.554688 478.308594 1222.988281 457.765625 1187.929688 455.203125 C 1053.757812 445.410156 898.921875 445.84375 750.023438 401.273438 C 601.128906 445.84375 446.300781 445.402344 312.121094 455.203125 C 277.0625 457.757812 249.496094 478.300781 244.285156 504.238281 L 191.222656 504.238281 C 191.222656 532.828125 168.042969 556.007812 139.453125 556.007812 L 139.453125 623.339844 C 91.609375 643.660156 58.046875 691.09375 58.046875 746.351562 L 58.046875 753.621094 C 58.046875 808.886719 91.609375 856.3125 139.453125 876.632812 L 139.453125 943.964844 C 168.042969 943.964844 191.222656 967.144531 191.222656 995.734375 L 244.285156 995.734375 C 249.496094 1021.664062 277.0625 1042.207031 312.121094 1044.769531 C 446.289062 1054.5625 601.128906 1054.128906 750.023438 1098.699219 C 898.921875 1054.128906 1053.75 1054.570312 1187.929688 1044.769531 C 1222.988281 1042.214844 1250.554688 1021.671875 1255.761719 995.734375 L 1308.828125 995.734375 C 1308.828125 967.144531 1332.003906 943.964844 1360.59375 943.964844 L 1360.59375 876.632812 C 1408.441406 856.3125 1442 808.886719 1442 753.621094 L 1442 746.351562 C 1442 691.085938 1408.441406 643.660156 1360.59375 623.339844 Z M 1360.59375 623.339844 " fill-opacity="1" fill-rule="nonzero"/><path fill="#d9d9d9" d="M 750.023438 1082.992188 C 630.632812 1047.976562 506.097656 1041.007812 396.066406 1034.847656 C 367.246094 1033.234375 340.03125 1031.710938 313.222656 1029.753906 C 285.734375 1027.742188 262.960938 1012.199219 259.058594 992.773438 L 256.625 980.671875 L 204.574219 980.671875 C 198.847656 955.890625 179.296875 936.34375 154.515625 930.613281 L 154.515625 866.667969 L 145.339844 862.773438 C 101.460938 844.132812 73.109375 801.28125 73.109375 753.613281 L 73.109375 746.34375 C 73.109375 698.671875 101.460938 655.832031 145.339844 637.183594 L 154.515625 633.289062 L 154.515625 569.339844 C 179.296875 563.613281 198.847656 544.0625 204.574219 519.28125 L 256.625 519.28125 L 259.058594 507.179688 C 262.953125 487.765625 285.734375 472.210938 313.222656 470.203125 C 340.023438 468.246094 367.226562 466.722656 396.039062 465.117188 C 506.078125 458.957031 630.625 451.992188 750.023438 416.972656 C 869.425781 451.992188 993.96875 458.957031 1104.019531 465.117188 C 1132.820312 466.730469 1160.035156 468.253906 1186.835938 470.203125 C 1214.324219 472.210938 1237.097656 487.757812 1241 507.179688 L 1243.433594 519.28125 L 1295.484375 519.28125 C 1301.210938 544.0625 1320.757812 563.613281 1345.542969 569.339844 L 1345.542969 633.289062 L 1354.714844 637.183594 C 1398.597656 655.824219 1426.949219 698.671875 1426.949219 746.34375 L 1426.949219 753.613281 C 1426.949219 801.28125 1398.597656 844.132812 1354.714844 862.773438 L 1345.542969 866.667969 L 1345.542969 930.613281 C 1320.757812 936.34375 1301.210938 955.890625 1295.484375 980.671875 L 1243.433594 980.671875 L 1241 992.773438 C 1237.105469 1012.1875 1214.324219 1027.742188 1186.835938 1029.753906 C 1160.027344 1031.710938 1132.804688 1033.234375 1103.992188 1034.847656 C 993.960938 1041.007812 869.425781 1047.96875 750.035156 1082.992188 Z M 750.023438 1082.992188 " fill-opacity="1" fill-rule="nonzero"/><path fill="#52050a" d="M 750.023438 1070.441406 L 749.195312 1070.203125 C 629.804688 1035.871094 506.035156 1028.941406 396.832031 1022.824219 C 368.101562 1021.222656 340.992188 1019.707031 314.101562 1017.742188 C 289.222656 1015.917969 273.261719 1002.300781 270.875 990.402344 L 266.503906 968.625 L 213.5625 968.625 L 212.804688 966.730469 C 204.777344 946.582031 188.613281 930.421875 168.46875 922.390625 L 166.574219 921.632812 L 166.574219 858.691406 L 150.058594 851.675781 C 110.636719 834.929688 85.164062 796.433594 85.164062 753.613281 L 85.164062 746.34375 C 85.164062 703.519531 110.636719 665.023438 150.066406 648.277344 L 166.574219 641.273438 L 166.574219 578.328125 L 168.46875 577.570312 C 188.613281 569.550781 204.777344 553.386719 212.804688 533.234375 L 213.5625 531.339844 L 266.503906 531.339844 L 270.875 509.5625 C 273.261719 497.671875 289.222656 484.046875 314.101562 482.222656 C 340.761719 480.285156 367.808594 478.769531 396.445312 477.164062 L 396.804688 477.148438 C 506.027344 471.03125 629.804688 464.101562 749.203125 429.765625 L 750.035156 429.53125 L 750.863281 429.765625 C 870.261719 464.101562 994.042969 471.039062 1103.253906 477.148438 L 1103.640625 477.171875 C 1132.175781 478.769531 1159.136719 480.273438 1185.953125 482.230469 C 1210.832031 484.054688 1226.792969 497.671875 1229.183594 509.570312 L 1233.554688 531.347656 L 1286.492188 531.347656 L 1287.25 533.242188 C 1295.28125 553.386719 1311.445312 569.550781 1331.589844 577.582031 L 1333.484375 578.339844 L 1333.484375 641.28125 L 1350 648.296875 C 1389.421875 665.042969 1414.890625 703.535156 1414.890625 746.359375 L 1414.890625 753.628906 C 1414.890625 796.453125 1389.421875 834.949219 1349.992188 851.695312 L 1333.484375 858.699219 L 1333.484375 921.644531 L 1331.589844 922.402344 C 1311.445312 930.429688 1295.28125 946.582031 1287.25 966.738281 L 1286.492188 968.632812 L 1233.554688 968.632812 L 1229.183594 990.410156 C 1226.792969 1002.300781 1210.832031 1015.925781 1185.953125 1017.75 C 1159.128906 1019.707031 1132.019531 1021.222656 1103.3125 1022.824219 C 994.066406 1028.941406 870.253906 1035.871094 750.863281 1070.203125 L 750.035156 1070.441406 Z M 217.617188 962.605469 L 271.4375 962.605469 L 276.789062 989.222656 C 278.726562 998.863281 293.710938 1010.207031 314.542969 1011.730469 C 341.378906 1013.6875 368.472656 1015.203125 397.148438 1016.804688 C 506.441406 1022.921875 630.253906 1029.859375 750.035156 1064.175781 C 869.820312 1029.859375 993.671875 1022.921875 1102.96875 1016.804688 C 1131.65625 1015.203125 1158.75 1013.6875 1185.523438 1011.730469 C 1206.355469 1010.207031 1221.347656 998.855469 1223.277344 989.222656 L 1228.628906 962.605469 L 1282.449219 962.605469 C 1291.058594 942.441406 1307.300781 926.191406 1327.476562 917.582031 L 1327.476562 854.707031 L 1347.65625 846.140625 C 1384.847656 830.339844 1408.882812 794.019531 1408.882812 753.621094 L 1408.882812 746.351562 C 1408.882812 705.941406 1384.847656 669.632812 1347.65625 653.832031 L 1327.476562 645.257812 L 1327.476562 582.382812 C 1307.308594 573.773438 1291.058594 557.53125 1282.449219 537.359375 L 1228.628906 537.359375 L 1223.277344 510.742188 C 1221.347656 501.101562 1206.355469 489.757812 1185.523438 488.234375 C 1158.75 486.277344 1131.816406 484.777344 1103.304688 483.183594 L 1102.945312 483.164062 C 993.652344 477.050781 869.828125 470.113281 750.035156 435.796875 C 630.246094 470.113281 506.421875 477.050781 397.148438 483.164062 L 396.769531 483.183594 C 368.179688 484.789062 341.160156 486.292969 314.554688 488.234375 C 293.71875 489.757812 278.726562 501.109375 276.796875 510.742188 L 271.449219 537.359375 L 217.625 537.359375 C 209.015625 557.523438 192.765625 573.773438 172.601562 582.382812 L 172.601562 645.257812 L 152.417969 653.824219 C 115.226562 669.625 91.195312 705.941406 91.195312 746.34375 L 91.195312 753.613281 C 91.195312 794.011719 115.226562 830.332031 152.417969 846.132812 L 172.601562 854.707031 L 172.601562 917.582031 C 192.765625 926.191406 209.015625 942.433594 217.625 962.605469 Z M 217.617188 962.605469 " fill-opacity="1" fill-rule="nonzero"/><path fill="#52050a" d="M 170.40625 749.992188 C 170.40625 750.621094 170.34375 751.246094 170.222656 751.863281 C 170.097656 752.484375 169.917969 753.085938 169.675781 753.667969 C 169.433594 754.25 169.136719 754.804688 168.785156 755.328125 C 168.4375 755.851562 168.039062 756.335938 167.59375 756.785156 C 167.144531 757.230469 166.660156 757.628906 166.136719 757.976562 C 165.613281 758.328125 165.058594 758.625 164.476562 758.867188 C 163.894531 759.105469 163.292969 759.289062 162.675781 759.414062 C 162.054688 759.535156 161.429688 759.597656 160.800781 759.597656 C 160.167969 759.597656 159.542969 759.535156 158.925781 759.414062 C 158.308594 759.289062 157.707031 759.105469 157.125 758.867188 C 156.539062 758.625 155.988281 758.328125 155.460938 757.976562 C 154.9375 757.628906 154.453125 757.230469 154.007812 756.785156 C 153.5625 756.335938 153.164062 755.851562 152.8125 755.328125 C 152.460938 754.804688 152.167969 754.25 151.925781 753.667969 C 151.683594 753.085938 151.5 752.484375 151.378906 751.863281 C 151.253906 751.246094 151.195312 750.621094 151.195312 749.992188 C 151.195312 749.359375 151.253906 748.734375 151.378906 748.117188 C 151.5 747.496094 151.683594 746.898438 151.925781 746.316406 C 152.167969 745.730469 152.460938 745.179688 152.8125 744.652344 C 153.164062 744.128906 153.5625 743.644531 154.007812 743.199219 C 154.453125 742.753906 154.9375 742.355469 155.460938 742.003906 C 155.988281 741.652344 156.539062 741.355469 157.125 741.117188 C 157.707031 740.875 158.308594 740.691406 158.925781 740.570312 C 159.542969 740.445312 160.167969 740.382812 160.800781 740.382812 C 161.429688 740.382812 162.054688 740.445312 162.675781 740.570312 C 163.292969 740.691406 163.894531 740.875 164.476562 741.117188 C 165.058594 741.355469 165.613281 741.652344 166.136719 742.003906 C 166.660156 742.355469 167.144531 742.753906 167.59375 743.199219 C 168.039062 743.644531 168.4375 744.128906 168.785156 744.652344 C 169.136719 745.179688 169.433594 745.730469 169.675781 746.316406 C 169.917969 746.898438 170.097656 747.496094 170.222656 748.117188 C 170.34375 748.734375 170.40625 749.359375 170.40625 749.992188 Z M 170.40625 749.992188 " fill-opacity="1" fill-rule="nonzero"/><path fill="#52050a" d="M 1348.847656 749.992188 C 1348.847656 750.621094 1348.785156 751.246094 1348.660156 751.863281 C 1348.539062 752.484375 1348.355469 753.085938 1348.113281 753.667969 C 1347.875 754.25 1347.578125 754.804688 1347.226562 755.328125 C 1346.878906 755.851562 1346.480469 756.335938 1346.03125 756.785156 C 1345.585938 757.230469 1345.101562 757.628906 1344.578125 757.976562 C 1344.050781 758.328125 1343.5 758.625 1342.917969 758.867188 C 1342.332031 759.105469 1341.734375 759.289062 1341.113281 759.414062 C 1340.496094 759.535156 1339.871094 759.597656 1339.242188 759.597656 C 1338.609375 759.597656 1337.984375 759.535156 1337.367188 759.414062 C 1336.746094 759.289062 1336.148438 759.105469 1335.5625 758.867188 C 1334.980469 758.625 1334.425781 758.328125 1333.902344 757.976562 C 1333.378906 757.628906 1332.894531 757.230469 1332.449219 756.785156 C 1332 756.335938 1331.601562 755.851562 1331.253906 755.328125 C 1330.902344 754.804688 1330.605469 754.25 1330.363281 753.667969 C 1330.125 753.085938 1329.941406 752.484375 1329.820312 751.863281 C 1329.695312 751.246094 1329.632812 750.621094 1329.632812 749.992188 C 1329.632812 749.359375 1329.695312 748.734375 1329.820312 748.117188 C 1329.941406 747.496094 1330.125 746.898438 1330.363281 746.316406 C 1330.605469 745.730469 1330.902344 745.179688 1331.253906 744.652344 C 1331.601562 744.128906 1332 743.644531 1332.449219 743.199219 C 1332.894531 742.753906 1333.378906 742.355469 1333.902344 742.003906 C 1334.425781 741.652344 1334.980469 741.355469 1335.5625 741.117188 C 1336.148438 740.875 1336.746094 740.691406 1337.367188 740.570312 C 1337.984375 740.445312 1338.609375 740.382812 1339.242188 740.382812 C 1339.871094 740.382812 1340.496094 740.445312 1341.113281 740.570312 C 1341.734375 740.691406 1342.332031 740.875 1342.917969 741.117188 C 1343.5 741.355469 1344.050781 741.652344 1344.578125 742.003906 C 1345.101562 742.355469 1345.585938 742.753906 1346.03125 743.199219 C 1346.480469 743.644531 1346.878906 744.128906 1347.226562 744.652344 C 1347.578125 745.179688 1347.875 745.730469 1348.113281 746.316406 C 1348.355469 746.898438 1348.539062 747.496094 1348.660156 748.117188 C 1348.785156 748.734375 1348.847656 749.359375 1348.847656 749.992188 Z M 1348.847656 749.992188 " fill-opacity="1" fill-rule="nonzero"/><g transform="matrix(1, 0, 0, 1, 288, 491)"><g clip-path="url(#8093b4cd0a)"><g fill="#52050a" fill-opacity="1"><g transform="translate(19.173789, 356.664179)"><g><path d="M 5.46875 -84.421875 C 7.75 -86.242188 9.6875 -86.585938 11.28125 -85.453125 C 12.414062 -84.316406 11.390625 -82.265625 8.203125 -79.296875 C 0.453125 -72.234375 -5.015625 -64.710938 -8.203125 -56.734375 C -11.617188 -48.765625 -11.960938 -42.046875 -9.234375 -36.578125 C -6.722656 -31.109375 -1.363281 -28.375 6.84375 -28.375 C 20.507812 -28.144531 39.078125 -40.675781 62.546875 -65.96875 C 85.796875 -91.257812 104.140625 -116.328125 117.578125 -141.171875 C 91.597656 -135.015625 74.851562 -129.429688 67.34375 -124.421875 C 65.289062 -123.960938 64.265625 -124.644531 64.265625 -126.46875 C 64.035156 -128.0625 64.488281 -129.085938 65.625 -129.546875 C 77.476562 -134.785156 95.9375 -140.253906 121 -145.953125 C 136.039062 -172.160156 149.03125 -199.617188 159.96875 -228.328125 C 170.675781 -256.816406 177.171875 -280.175781 179.453125 -298.40625 C 179.222656 -299.3125 181.5 -299.878906 186.28125 -300.109375 C 191.070312 -300.335938 195.742188 -299.539062 200.296875 -297.71875 C 204.628906 -295.664062 206.566406 -292.472656 206.109375 -288.140625 C 199.734375 -235.503906 197.910156 -191.1875 200.640625 -155.1875 C 218.421875 -154.726562 231.296875 -151.304688 239.265625 -144.921875 C 247.015625 -138.546875 249.75 -131.03125 247.46875 -122.375 C 246.789062 -120.09375 245.992188 -118.835938 245.078125 -118.609375 C 244.390625 -118.609375 243.9375 -118.953125 243.71875 -119.640625 L 243.71875 -122.375 C 245.539062 -130.113281 242.914062 -136.71875 235.84375 -142.1875 C 228.550781 -147.65625 216.929688 -150.503906 200.984375 -150.734375 C 203.492188 -122.929688 208.960938 -96.15625 217.390625 -70.40625 C 225.828125 -44.65625 236.648438 -23.46875 249.859375 -6.84375 C 263.078125 9.789062 276.75 17.882812 290.875 17.4375 C 292.925781 17.207031 294.066406 17.429688 294.296875 18.109375 C 294.296875 18.796875 293.046875 19.253906 290.546875 19.484375 C 276.867188 21.304688 263.878906 18.34375 251.578125 10.59375 C 239.046875 3.070312 228.445312 -7.179688 219.78125 -20.171875 C 211.125 -32.929688 203.492188 -47.398438 196.890625 -63.578125 C 190.046875 -79.753906 184.914062 -95.25 181.5 -110.0625 C 178.082031 -124.644531 175.921875 -137.863281 175.015625 -149.71875 C 163.847656 -148.800781 147.097656 -146.40625 124.765625 -142.53125 C 114.273438 -124.757812 102.648438 -107.328125 89.890625 -90.234375 C 76.898438 -73.148438 62.660156 -57.769531 47.171875 -44.09375 C 31.671875 -30.414062 18.566406 -23.691406 7.859375 -23.921875 C -7.628906 -24.148438 -15.488281 -30.757812 -15.71875 -43.75 C -16.175781 -56.738281 -9.113281 -70.296875 5.46875 -84.421875 Z M 128.515625 -147.65625 C 147.660156 -150.851562 162.929688 -152.90625 174.328125 -153.8125 C 172.734375 -181.15625 172.734375 -204.628906 174.328125 -224.234375 C 175.691406 -243.597656 177.851562 -259.207031 180.8125 -271.0625 C 168.050781 -227.757812 150.617188 -186.625 128.515625 -147.65625 Z M 128.515625 -147.65625 "/></g></g></g><g fill="#52050a" fill-opacity="1"><g transform="translate(282.356925, 356.664179)"><g><path d="M 12.984375 -123.390625 C 17.773438 -134.097656 20.851562 -145.945312 22.21875 -158.9375 L 22.21875 -168.171875 C 21.082031 -176.597656 18.117188 -181.613281 13.328125 -183.21875 C 8.546875 -184.582031 2.847656 -181.957031 -3.765625 -175.34375 C -8.546875 -170.789062 -11.394531 -164.984375 -12.3125 -157.921875 C -13.445312 -150.628906 -12.191406 -143.453125 -8.546875 -136.390625 C -5.128906 -129.316406 0.453125 -124.1875 8.203125 -121 C 4.554688 -112.34375 1.59375 -105.734375 -0.6875 -101.171875 L 3.078125 -101.171875 L 11.625 -119.640625 C 22.101562 -116.210938 27.6875 -113.019531 28.375 -110.0625 L 29.046875 -105.96875 C 29.046875 -105.050781 28.707031 -103.335938 28.03125 -100.828125 C 27.113281 -98.328125 26.316406 -96.28125 25.640625 -94.6875 C 24.953125 -93.09375 23.925781 -90.695312 22.5625 -87.5 C 21.195312 -84.082031 20.054688 -81.117188 19.140625 -78.609375 C 15.492188 -69.722656 12.875 -59.925781 11.28125 -49.21875 C 9.457031 -38.28125 9.457031 -27.457031 11.28125 -16.75 C 13.101562 -6.039062 17.316406 1.132812 23.921875 4.78125 C 26.429688 5.925781 28.828125 6.15625 31.109375 5.46875 C 39.535156 2.28125 60.269531 -33.722656 93.3125 -102.546875 L 89.5625 -102.546875 C 57.65625 -38.285156 38.054688 -4.445312 30.765625 -1.03125 C 26.429688 0.789062 27.570312 -11.96875 34.1875 -39.3125 C 37.601562 -54.351562 41.703125 -68.9375 46.484375 -83.0625 C 49.898438 -90.125 51.492188 -95.707031 51.265625 -99.8125 C 51.046875 -103.914062 47.398438 -108.015625 40.328125 -112.109375 C 38.054688 -113.484375 33.613281 -115.421875 27 -117.921875 C 20.164062 -120.429688 15.492188 -122.253906 12.984375 -123.390625 Z M 9.578125 -124.765625 C -1.816406 -129.085938 -5.46875 -138.539062 -1.375 -153.125 C 1.363281 -162.925781 5.46875 -169.648438 10.9375 -173.296875 C 14.582031 -176.035156 16.863281 -175.238281 17.78125 -170.90625 C 18.457031 -168.164062 18.566406 -164.289062 18.109375 -159.28125 C 17.429688 -148.34375 14.585938 -136.835938 9.578125 -124.765625 Z M 9.578125 -124.765625 "/></g></g></g><g fill="#52050a" fill-opacity="1"><g transform="translate(352.424462, 356.664179)"><g><path d="M 24.953125 -100.828125 C 24.722656 -98.554688 23.925781 -93.773438 22.5625 -86.484375 C 21.195312 -79.191406 20.285156 -73.378906 19.828125 -69.046875 C 19.140625 -64.484375 18.679688 -59.582031 18.453125 -54.34375 C 18.003906 -48.875 18.234375 -45.113281 19.140625 -43.0625 C 20.054688 -41.007812 21.765625 -40.785156 24.265625 -42.390625 C 28.828125 -45.347656 35.4375 -53.320312 44.09375 -66.3125 C 52.519531 -79.300781 59.46875 -91.378906 64.9375 -102.546875 L 69.046875 -102.546875 C 62.210938 -88.191406 53.78125 -73.832031 43.75 -59.46875 C 33.726562 -44.882812 25.984375 -36.796875 20.515625 -35.203125 C 11.398438 -32.703125 4.90625 -37.488281 1.03125 -49.5625 C -2.84375 -61.632812 -3.984375 -74.738281 -2.390625 -88.875 C -1.023438 -103 1.59375 -111.316406 5.46875 -113.828125 C 6.382812 -113.828125 8.4375 -113.941406 11.625 -114.171875 C 14.8125 -114.390625 18 -113.363281 21.1875 -111.09375 C 24.382812 -108.582031 25.640625 -105.160156 24.953125 -100.828125 Z M 27.34375 -161.671875 C 29.851562 -159.398438 31.222656 -156.441406 31.453125 -152.796875 C 31.453125 -149.148438 30.3125 -145.84375 28.03125 -142.875 C 25.976562 -139.914062 23.359375 -138.207031 20.171875 -137.75 C 16.753906 -137.0625 13.90625 -137.742188 11.625 -139.796875 C 9.34375 -142.078125 8.203125 -145.039062 8.203125 -148.6875 C 7.972656 -152.332031 8.882812 -155.632812 10.9375 -158.59375 C 13.21875 -161.789062 15.953125 -163.726562 19.140625 -164.40625 C 22.097656 -164.863281 24.832031 -163.953125 27.34375 -161.671875 Z M 27.34375 -161.671875 "/></g></g></g><g fill="#52050a" fill-opacity="1"><g transform="translate(397.882624, 356.664179)"><g><path d="M 116.5625 -42.046875 C 116.5625 -47.515625 117.128906 -54.804688 118.265625 -63.921875 C 119.179688 -72.804688 120.320312 -81.238281 121.6875 -89.21875 C 122.820312 -96.957031 123.960938 -104.929688 125.109375 -113.140625 C 126.015625 -121.335938 126.582031 -127.375 126.8125 -131.25 C 126.8125 -135.125 126.128906 -137.519531 124.765625 -138.4375 C 120.429688 -138.664062 112.910156 -128.753906 102.203125 -108.703125 C 91.265625 -88.421875 84.425781 -70.988281 81.6875 -56.40625 C 80.78125 -51.382812 79.300781 -47.738281 77.25 -45.46875 C 75.195312 -42.957031 73.03125 -42.15625 70.75 -43.0625 C 68.25 -43.75 66.3125 -46.03125 64.9375 -49.90625 C 59.925781 -63.570312 59.703125 -89.550781 64.265625 -127.84375 C 66.765625 -147.894531 63.457031 -149.71875 54.34375 -133.3125 C 53.664062 -132.394531 53.328125 -131.820312 53.328125 -131.59375 C 46.710938 -119.75 40.332031 -103.910156 34.1875 -84.078125 C 28.03125 -64.253906 25.179688 -48.875 25.640625 -37.9375 C 25.640625 -37.257812 24.84375 -36.804688 23.25 -36.578125 C 21.425781 -36.117188 19.257812 -36.117188 16.75 -36.578125 C 14.238281 -36.804688 12.300781 -37.375 10.9375 -38.28125 C 11.625 -45.113281 10.941406 -54.800781 8.890625 -67.34375 C 6.609375 -79.644531 3.644531 -91.265625 0 -102.203125 C -0.457031 -103.566406 0.910156 -105.046875 4.109375 -106.640625 C 7.066406 -108.015625 10.253906 -108.8125 13.671875 -109.03125 C 17.085938 -109.03125 19.9375 -108.007812 22.21875 -105.96875 C 23.351562 -104.363281 24.148438 -96.382812 24.609375 -82.03125 C 24.835938 -67.445312 24.609375 -59.015625 23.921875 -56.734375 C 25.515625 -68.585938 30.070312 -84.65625 37.59375 -104.9375 C 45.113281 -125.21875 52.40625 -139.457031 59.46875 -147.65625 C 64.257812 -153.125 69.273438 -154.722656 74.515625 -152.453125 C 79.523438 -150.171875 83.285156 -144.816406 85.796875 -136.390625 C 86.703125 -129.316406 87.046875 -123.390625 86.828125 -118.609375 C 86.367188 -113.597656 85.453125 -105.738281 84.078125 -95.03125 C 82.484375 -84.082031 81.570312 -76.101562 81.34375 -71.09375 C 85 -82.257812 90.925781 -95.59375 99.125 -111.09375 C 107.101562 -126.351562 115.304688 -137.628906 123.734375 -144.921875 C 131.253906 -151.535156 138.207031 -152.222656 144.59375 -146.984375 C 150.96875 -141.515625 153.242188 -133.992188 151.421875 -124.421875 C 150.515625 -119.859375 148.347656 -109.832031 144.921875 -94.34375 C 141.273438 -78.84375 138.203125 -64.710938 135.703125 -51.953125 C 133.191406 -39.191406 131.9375 -30.191406 131.9375 -24.953125 C 131.9375 -20.390625 132.960938 -17.425781 135.015625 -16.0625 C 137.066406 -14.46875 140.03125 -15.492188 143.90625 -19.140625 C 155.070312 -32.359375 171.25 -60.160156 192.4375 -102.546875 L 196.546875 -102.546875 C 196.085938 -101.628906 194.378906 -97.984375 191.421875 -91.609375 C 188.222656 -84.992188 185.03125 -78.5 181.84375 -72.125 C 178.425781 -65.507812 174.550781 -58.332031 170.21875 -50.59375 C 165.894531 -42.84375 161.566406 -35.773438 157.234375 -29.390625 C 152.671875 -22.785156 148.457031 -17.773438 144.59375 -14.359375 C 139.125 -10.023438 134.566406 -7.972656 130.921875 -8.203125 C 127.265625 -8.203125 124.414062 -10.367188 122.375 -14.703125 C 120.320312 -19.023438 118.835938 -23.582031 117.921875 -28.375 C 117.015625 -32.925781 116.5625 -37.484375 116.5625 -42.046875 Z M 116.5625 -42.046875 "/></g></g></g><g fill="#52050a" fill-opacity="1"><g transform="translate(570.830944, 356.664179)"><g><path d="M 53.328125 -126.8125 C 58.796875 -128.40625 63.351562 -126.125 67 -119.96875 C 70.414062 -113.59375 72.125 -103.796875 72.125 -90.578125 C 71.894531 -77.359375 69.5 -62.660156 64.9375 -46.484375 C 64.257812 -46.023438 59.019531 -43.40625 49.21875 -38.625 C 39.414062 -33.84375 31.210938 -29.054688 24.609375 -24.265625 C 17.546875 -19.023438 15.039062 -13.328125 17.09375 -7.171875 C 19.144531 -0.796875 24.382812 1.476562 32.8125 -0.34375 C 41.46875 -2.164062 50.695312 -7.632812 60.5 -16.75 C 70.070312 -25.863281 77.820312 -37.03125 83.75 -50.25 C 88.757812 -53.4375 95.59375 -59.816406 104.25 -69.390625 C 112.6875 -78.734375 120.09375 -89.785156 126.46875 -102.546875 L 122.703125 -102.546875 C 112.222656 -82.492188 100.035156 -67.222656 86.140625 -56.734375 C 91.835938 -72.691406 94.6875 -88.300781 94.6875 -103.5625 C 94.457031 -118.601562 90.921875 -129.203125 84.078125 -135.359375 C 78.609375 -139.460938 72.6875 -140.828125 66.3125 -139.453125 C 59.925781 -138.085938 54 -135.015625 48.53125 -130.234375 C 41.46875 -123.617188 35.546875 -113.816406 30.765625 -100.828125 C 25.753906 -87.617188 22.335938 -75.429688 20.515625 -64.265625 C 20.285156 -70.410156 19.828125 -76.789062 19.140625 -83.40625 C 18.453125 -90.007812 17.769531 -95.476562 17.09375 -99.8125 C 16.175781 -104.132812 15.265625 -108.234375 14.359375 -112.109375 C 13.441406 -115.984375 12.984375 -118.265625 12.984375 -118.953125 C 36.679688 -170.910156 52.40625 -214.429688 60.15625 -249.515625 C 62.894531 -262.734375 63.578125 -275.15625 62.203125 -286.78125 C 60.835938 -298.632812 56.738281 -307.296875 49.90625 -312.765625 C 42.84375 -318.234375 34.976562 -320.507812 26.3125 -319.59375 C 17.65625 -318.457031 9.226562 -315.269531 1.03125 -310.03125 C -21.53125 -295.664062 -32.359375 -269.800781 -31.453125 -232.4375 C -31.222656 -218.300781 -28.828125 -202.347656 -24.265625 -184.578125 C -19.941406 -166.578125 -15.269531 -150.738281 -10.25 -137.0625 C -5.238281 -123.164062 -0.910156 -108.242188 2.734375 -92.296875 C 6.378906 -76.335938 7.75 -62.660156 6.84375 -51.265625 C 9.113281 -47.617188 13.328125 -46.253906 19.484375 -47.171875 C 21.535156 -47.628906 22.5625 -48.195312 22.5625 -48.875 C 22.101562 -57.988281 25.40625 -72.914062 32.46875 -93.65625 C 39.53125 -114.164062 46.484375 -125.21875 53.328125 -126.8125 Z M 11.625 -126.125 C 5.695312 -152.332031 1.476562 -174.664062 -1.03125 -193.125 C -3.757812 -211.582031 -4.554688 -228.671875 -3.421875 -244.390625 C -2.503906 -259.890625 0.6875 -272.992188 6.15625 -283.703125 C 11.164062 -293.734375 17.429688 -301.484375 24.953125 -306.953125 C 32.242188 -312.421875 39.082031 -313.671875 45.46875 -310.703125 C 51.84375 -307.515625 55.941406 -299.425781 57.765625 -286.4375 C 59.359375 -275.039062 58.789062 -262.847656 56.0625 -249.859375 C 50.59375 -223.660156 35.78125 -182.414062 11.625 -126.125 Z M 63.234375 -41.359375 C 57.535156 -26.546875 48.191406 -15.148438 35.203125 -7.171875 C 27.679688 -2.617188 22.894531 -2.617188 20.84375 -7.171875 C 18.570312 -11.503906 20.171875 -15.835938 25.640625 -20.171875 C 34.523438 -27.460938 47.054688 -34.523438 63.234375 -41.359375 Z M 63.234375 -41.359375 "/></g></g></g><g fill="#52050a" fill-opacity="1"><g transform="translate(674.052714, 356.664179)"><g><path d="M 24.953125 -100.828125 C 24.722656 -98.554688 23.925781 -93.773438 22.5625 -86.484375 C 21.195312 -79.191406 20.285156 -73.378906 19.828125 -69.046875 C 19.140625 -64.484375 18.679688 -59.582031 18.453125 -54.34375 C 18.003906 -48.875 18.234375 -45.113281 19.140625 -43.0625 C 20.054688 -41.007812 21.765625 -40.785156 24.265625 -42.390625 C 28.828125 -45.347656 35.4375 -53.320312 44.09375 -66.3125 C 52.519531 -79.300781 59.46875 -91.378906 64.9375 -102.546875 L 69.046875 -102.546875 C 62.210938 -88.191406 53.78125 -73.832031 43.75 -59.46875 C 33.726562 -44.882812 25.984375 -36.796875 20.515625 -35.203125 C 11.398438 -32.703125 4.90625 -37.488281 1.03125 -49.5625 C -2.84375 -61.632812 -3.984375 -74.738281 -2.390625 -88.875 C -1.023438 -103 1.59375 -111.316406 5.46875 -113.828125 C 6.382812 -113.828125 8.4375 -113.941406 11.625 -114.171875 C 14.8125 -114.390625 18 -113.363281 21.1875 -111.09375 C 24.382812 -108.582031 25.640625 -105.160156 24.953125 -100.828125 Z M 27.34375 -161.671875 C 29.851562 -159.398438 31.222656 -156.441406 31.453125 -152.796875 C 31.453125 -149.148438 30.3125 -145.84375 28.03125 -142.875 C 25.976562 -139.914062 23.359375 -138.207031 20.171875 -137.75 C 16.753906 -137.0625 13.90625 -137.742188 11.625 -139.796875 C 9.34375 -142.078125 8.203125 -145.039062 8.203125 -148.6875 C 7.972656 -152.332031 8.882812 -155.632812 10.9375 -158.59375 C 13.21875 -161.789062 15.953125 -163.726562 19.140625 -164.40625 C 22.097656 -164.863281 24.832031 -163.953125 27.34375 -161.671875 Z M 27.34375 -161.671875 "/></g></g></g><g fill="#52050a" fill-opacity="1"><g transform="translate(719.510876, 356.664179)"><g><path d="M 30.765625 -298.75 C 33.953125 -296.925781 35.203125 -294.078125 34.515625 -290.203125 C 34.296875 -285.640625 31.109375 -279.375 24.953125 -271.40625 C 18.566406 -263.425781 12.070312 -258.867188 5.46875 -257.734375 C 10.707031 -263.203125 14.351562 -268.441406 16.40625 -273.453125 C 14.582031 -273.453125 12.988281 -273.789062 11.625 -274.46875 C 9.570312 -275.613281 8.429688 -277.894531 8.203125 -281.3125 C 7.972656 -284.726562 9.113281 -288.257812 11.625 -291.90625 C 14.125 -295.09375 17.425781 -297.375 21.53125 -298.75 C 25.40625 -299.882812 28.484375 -299.882812 30.765625 -298.75 Z M 30.765625 -298.75 "/></g></g></g><g fill="#52050a" fill-opacity="1"><g transform="translate(741.726901, 356.664179)"><g/></g></g><g fill="#52050a" fill-opacity="1"><g transform="translate(806.66744, 356.664179)"><g><path d="M 98.09375 -102.546875 L 102.203125 -102.546875 C 96.734375 -91.609375 90.007812 -81.007812 82.03125 -70.75 C 73.832031 -60.5 67 -52.867188 61.53125 -47.859375 C 66.769531 -34.867188 69.160156 -22.445312 68.703125 -10.59375 C 68.242188 1.25 65.394531 11.84375 60.15625 21.1875 C 50.132812 38.96875 36.691406 49.566406 19.828125 52.984375 C 6.378906 55.484375 -3.53125 52.75 -9.90625 44.78125 C -16.75 36.570312 -16.410156 25.859375 -8.890625 12.640625 C -6.609375 8.546875 -3.53125 4.21875 0.34375 -0.34375 C 4.21875 -4.894531 8.429688 -9.222656 12.984375 -13.328125 C 17.316406 -17.429688 21.191406 -20.960938 24.609375 -23.921875 C 28.023438 -26.890625 31.554688 -29.738281 35.203125 -32.46875 C 38.617188 -35.207031 40.441406 -36.691406 40.671875 -36.921875 C 38.847656 -40.796875 33.609375 -49.113281 24.953125 -61.875 C 16.296875 -74.632812 10.03125 -84.316406 6.15625 -90.921875 C -10.707031 -119.628906 -15.722656 -144.582031 -8.890625 -165.78125 C -5.015625 -178.082031 1.476562 -186.628906 10.59375 -191.421875 C 18.570312 -195.515625 24.039062 -194.257812 27 -187.65625 C 29.050781 -183.550781 29.394531 -177.507812 28.03125 -169.53125 C 25.289062 -152.675781 20.050781 -136.269531 12.3125 -120.3125 C 14.8125 -115.53125 22.328125 -105.050781 34.859375 -88.875 C 47.398438 -72.46875 55.71875 -60.160156 59.8125 -51.953125 C 65.050781 -56.285156 71.773438 -63.691406 79.984375 -74.171875 C 87.960938 -84.648438 94 -94.109375 98.09375 -102.546875 Z M 42.390625 -32.8125 C 35.773438 -28.476562 27.457031 -21.753906 17.4375 -12.640625 C 7.175781 -3.296875 -0.34375 5.472656 -5.125 13.671875 C -12.875 26.660156 -12.875 36.6875 -5.125 43.75 C 1.476562 49.90625 9.796875 51.046875 19.828125 47.171875 C 30.765625 42.835938 38.738281 33.835938 43.75 20.171875 C 50.582031 0.796875 50.128906 -16.863281 42.390625 -32.8125 Z M 9.90625 -123.734375 C 16.976562 -139.460938 21.765625 -154.617188 24.265625 -169.203125 C 26.316406 -182.191406 24.953125 -188.6875 20.171875 -188.6875 C 16.296875 -188.90625 12.421875 -184.914062 8.546875 -176.71875 C 6.953125 -173.53125 5.695312 -169.882812 4.78125 -165.78125 C 1.132812 -149.601562 2.84375 -135.585938 9.90625 -123.734375 Z M 9.90625 -123.734375 "/></g></g></g><g fill="#52050a" fill-opacity="1"><g transform="translate(885.293882, 356.664179)"><g/></g></g></g></g><g transform="matrix(1, 0, 0, 1, 474, 901)"><g clip-path="url(#32a413492e)"><g fill="#52050a" fill-opacity="1"><g transform="translate(1.404383, 52.528832)"><g><path d="M 31.4375 -21.6875 C 34.019531 -21.6875 36.003906 -22.175781 37.390625 -23.15625 C 38.785156 -24.132812 39.484375 -25.742188 39.484375 -27.984375 C 39.484375 -30.085938 38.875 -31.539062 37.65625 -32.34375 C 36.4375 -33.15625 34.265625 -33.5625 31.140625 -33.5625 L 14.796875 -33.5625 L 14.796875 -21.6875 Z M 31.578125 -38.53125 C 33.578125 -38.53125 35.40625 -38.347656 37.0625 -37.984375 C 38.726562 -37.617188 40.144531 -37.03125 41.3125 -36.21875 C 42.488281 -35.414062 43.40625 -34.351562 44.0625 -33.03125 C 44.726562 -31.71875 45.0625 -30.109375 45.0625 -28.203125 C 45.0625 -24.003906 43.851562 -21.035156 41.4375 -19.296875 C 39.019531 -17.566406 35.757812 -16.703125 31.65625 -16.703125 L 14.796875 -16.703125 L 14.796875 -2.640625 C 14.796875 -2.097656 14.914062 -1.664062 15.15625 -1.34375 C 15.40625 -1.03125 15.875 -0.875 16.5625 -0.875 L 16.5625 0 L 6.890625 0 L 6.890625 -0.875 C 7.566406 -0.875 8.023438 -1.03125 8.265625 -1.34375 C 8.515625 -1.664062 8.640625 -2.097656 8.640625 -2.640625 L 8.640625 -35.90625 C 8.640625 -36.4375 8.515625 -36.859375 8.265625 -37.171875 C 8.023438 -37.492188 7.566406 -37.65625 6.890625 -37.65625 L 6.890625 -38.53125 Z M 31.578125 -38.53125 "/></g></g></g><g fill="#52050a" fill-opacity="1"><g transform="translate(58.840605, 52.528832)"><g><path d="M 10.84375 -19.265625 C 10.84375 -14.628906 12.222656 -11.015625 14.984375 -8.421875 C 17.742188 -5.835938 21.566406 -4.546875 26.453125 -4.546875 C 31.335938 -4.546875 35.15625 -5.828125 37.90625 -8.390625 C 40.664062 -10.953125 42.046875 -14.578125 42.046875 -19.265625 C 42.046875 -23.859375 40.691406 -27.460938 37.984375 -30.078125 C 35.273438 -32.691406 31.40625 -34 26.375 -34 C 21.488281 -34 17.675781 -32.691406 14.9375 -30.078125 C 12.207031 -27.460938 10.84375 -23.859375 10.84375 -19.265625 Z M 26.453125 -38.984375 C 29.671875 -38.984375 32.632812 -38.539062 35.34375 -37.65625 C 38.0625 -36.78125 40.382812 -35.5 42.3125 -33.8125 C 44.238281 -32.125 45.75 -30.054688 46.84375 -27.609375 C 47.945312 -25.171875 48.5 -22.390625 48.5 -19.265625 C 48.5 -16.234375 47.972656 -13.5 46.921875 -11.0625 C 45.867188 -8.625 44.378906 -6.546875 42.453125 -4.828125 C 40.523438 -3.117188 38.207031 -1.8125 35.5 -0.90625 C 32.789062 -0.0078125 29.773438 0.4375 26.453125 0.4375 C 23.128906 0.4375 20.109375 -0.0234375 17.390625 -0.953125 C 14.679688 -1.878906 12.363281 -3.195312 10.4375 -4.90625 C 8.507812 -6.613281 7.019531 -8.675781 5.96875 -11.09375 C 4.914062 -13.507812 4.390625 -16.234375 4.390625 -19.265625 C 4.390625 -22.390625 4.925781 -25.171875 6 -27.609375 C 7.082031 -30.054688 8.597656 -32.125 10.546875 -33.8125 C 12.503906 -35.5 14.835938 -36.78125 17.546875 -37.65625 C 20.253906 -38.539062 23.222656 -38.984375 26.453125 -38.984375 Z M 26.453125 -38.984375 "/></g></g></g><g fill="#52050a" fill-opacity="1"><g transform="translate(120.30607, 52.528832)"><g><path d="M 31.65625 -21.6875 C 34.1875 -21.6875 36.160156 -22.175781 37.578125 -23.15625 C 38.992188 -24.132812 39.703125 -25.742188 39.703125 -27.984375 C 39.703125 -28.960938 39.566406 -29.804688 39.296875 -30.515625 C 39.035156 -31.222656 38.585938 -31.796875 37.953125 -32.234375 C 37.316406 -32.671875 36.460938 -33 35.390625 -33.21875 C 34.316406 -33.445312 32.945312 -33.5625 31.28125 -33.5625 L 15.53125 -33.5625 L 15.53125 -21.6875 Z M 32.15625 -38.53125 C 36.601562 -38.53125 39.972656 -37.703125 42.265625 -36.046875 C 44.566406 -34.390625 45.71875 -31.65625 45.71875 -27.84375 C 45.71875 -24.757812 44.898438 -22.3125 43.265625 -20.5 C 41.628906 -18.695312 39.003906 -17.554688 35.390625 -17.078125 L 43.8125 -4.03125 C 44.59375 -2.851562 45.164062 -2.03125 45.53125 -1.5625 C 45.894531 -1.101562 46.492188 -0.875 47.328125 -0.875 L 47.46875 -0.875 L 47.46875 0 L 36.921875 0 L 36.921875 -0.875 C 37.609375 -0.875 38.023438 -0.9375 38.171875 -1.0625 C 38.316406 -1.1875 38.390625 -1.34375 38.390625 -1.53125 C 38.390625 -1.726562 38.28125 -1.984375 38.0625 -2.296875 C 37.84375 -2.617188 37.585938 -3.023438 37.296875 -3.515625 L 29.015625 -16.703125 L 15.53125 -16.703125 L 15.53125 -2.640625 C 15.53125 -2.097656 15.648438 -1.664062 15.890625 -1.34375 C 16.140625 -1.03125 16.609375 -0.875 17.296875 -0.875 L 17.296875 0 L 7.625 0 L 7.625 -0.875 C 8.300781 -0.875 8.757812 -1.03125 9 -1.34375 C 9.25 -1.664062 9.375 -2.097656 9.375 -2.640625 L 9.375 -35.90625 C 9.375 -36.4375 9.25 -36.859375 9 -37.171875 C 8.757812 -37.492188 8.300781 -37.65625 7.625 -37.65625 L 7.625 -38.53125 Z M 32.15625 -38.53125 "/></g></g></g><g fill="#52050a" fill-opacity="1"><g transform="translate(181.771535, 52.528832)"><g><path d="M 3.515625 -40.4375 L 4.390625 -40.4375 C 4.390625 -39.757812 4.632812 -39.269531 5.125 -38.96875 C 5.613281 -38.675781 6.203125 -38.53125 6.890625 -38.53125 L 37.8125 -38.53125 C 39.46875 -38.53125 40.296875 -39.164062 40.296875 -40.4375 L 41.171875 -40.4375 L 41.171875 -31.796875 L 40.296875 -31.796875 C 40.296875 -32.578125 40.085938 -33.085938 39.671875 -33.328125 C 39.253906 -33.578125 38.632812 -33.703125 37.8125 -33.703125 L 25.421875 -33.703125 L 25.421875 -2.640625 C 25.421875 -2.097656 25.539062 -1.664062 25.78125 -1.34375 C 26.03125 -1.03125 26.5 -0.875 27.1875 -0.875 L 27.1875 0 L 17.515625 0 L 17.515625 -0.875 C 18.679688 -0.875 19.265625 -1.460938 19.265625 -2.640625 L 19.265625 -33.703125 L 6.953125 -33.703125 C 6.128906 -33.703125 5.492188 -33.578125 5.046875 -33.328125 C 4.609375 -33.085938 4.390625 -32.578125 4.390625 -31.796875 L 3.515625 -31.796875 Z M 3.515625 -40.4375 "/></g></g></g><g fill="#52050a" fill-opacity="1"><g transform="translate(235.105266, 52.528832)"><g><path d="M 10.84375 -19.265625 C 10.84375 -14.628906 12.222656 -11.015625 14.984375 -8.421875 C 17.742188 -5.835938 21.566406 -4.546875 26.453125 -4.546875 C 31.335938 -4.546875 35.15625 -5.828125 37.90625 -8.390625 C 40.664062 -10.953125 42.046875 -14.578125 42.046875 -19.265625 C 42.046875 -23.859375 40.691406 -27.460938 37.984375 -30.078125 C 35.273438 -32.691406 31.40625 -34 26.375 -34 C 21.488281 -34 17.675781 -32.691406 14.9375 -30.078125 C 12.207031 -27.460938 10.84375 -23.859375 10.84375 -19.265625 Z M 26.453125 -38.984375 C 29.671875 -38.984375 32.632812 -38.539062 35.34375 -37.65625 C 38.0625 -36.78125 40.382812 -35.5 42.3125 -33.8125 C 44.238281 -32.125 45.75 -30.054688 46.84375 -27.609375 C 47.945312 -25.171875 48.5 -22.390625 48.5 -19.265625 C 48.5 -16.234375 47.972656 -13.5 46.921875 -11.0625 C 45.867188 -8.625 44.378906 -6.546875 42.453125 -4.828125 C 40.523438 -3.117188 38.207031 -1.8125 35.5 -0.90625 C 32.789062 -0.0078125 29.773438 0.4375 26.453125 0.4375 C 23.128906 0.4375 20.109375 -0.0234375 17.390625 -0.953125 C 14.679688 -1.878906 12.363281 -3.195312 10.4375 -4.90625 C 8.507812 -6.613281 7.019531 -8.675781 5.96875 -11.09375 C 4.914062 -13.507812 4.390625 -16.234375 4.390625 -19.265625 C 4.390625 -22.390625 4.925781 -25.171875 6 -27.609375 C 7.082031 -30.054688 8.597656 -32.125 10.546875 -33.8125 C 12.503906 -35.5 14.835938 -36.78125 17.546875 -37.65625 C 20.253906 -38.539062 23.222656 -38.984375 26.453125 -38.984375 Z M 26.453125 -38.984375 "/></g></g></g><g fill="#52050a" fill-opacity="1"><g transform="translate(296.570717, 52.528832)"><g><path d="M 42.203125 -31.65625 L 41.328125 -31.65625 C 41.328125 -33.019531 40.375 -33.703125 38.46875 -33.703125 L 14.796875 -33.703125 L 14.796875 -22.421875 L 30.1875 -22.421875 C 31.40625 -22.421875 32.222656 -22.503906 32.640625 -22.671875 C 33.054688 -22.847656 33.265625 -23.253906 33.265625 -23.890625 L 34.140625 -23.890625 L 34.140625 -15.53125 L 33.265625 -15.53125 C 33.265625 -16.457031 32.945312 -17.03125 32.3125 -17.25 C 31.675781 -17.46875 30.941406 -17.578125 30.109375 -17.578125 L 14.796875 -17.578125 L 14.796875 -2.640625 C 14.796875 -2.097656 14.914062 -1.664062 15.15625 -1.34375 C 15.40625 -1.03125 15.875 -0.875 16.5625 -0.875 L 16.5625 0 L 6.890625 0 L 6.890625 -0.875 C 7.566406 -0.875 8.023438 -1.03125 8.265625 -1.34375 C 8.515625 -1.664062 8.640625 -2.097656 8.640625 -2.640625 L 8.640625 -35.90625 C 8.640625 -36.4375 8.515625 -36.859375 8.265625 -37.171875 C 8.023438 -37.492188 7.566406 -37.65625 6.890625 -37.65625 L 6.890625 -38.53125 L 38.09375 -38.53125 C 39.320312 -38.53125 40.164062 -38.601562 40.625 -38.75 C 41.09375 -38.90625 41.328125 -39.320312 41.328125 -40 L 42.203125 -40 Z M 42.203125 -31.65625 "/></g></g></g><g fill="#52050a" fill-opacity="1"><g transform="translate(349.904477, 52.528832)"><g><path d="M 10.84375 -19.265625 C 10.84375 -14.628906 12.222656 -11.015625 14.984375 -8.421875 C 17.742188 -5.835938 21.566406 -4.546875 26.453125 -4.546875 C 31.335938 -4.546875 35.15625 -5.828125 37.90625 -8.390625 C 40.664062 -10.953125 42.046875 -14.578125 42.046875 -19.265625 C 42.046875 -23.859375 40.691406 -27.460938 37.984375 -30.078125 C 35.273438 -32.691406 31.40625 -34 26.375 -34 C 21.488281 -34 17.675781 -32.691406 14.9375 -30.078125 C 12.207031 -27.460938 10.84375 -23.859375 10.84375 -19.265625 Z M 26.453125 -38.984375 C 29.671875 -38.984375 32.632812 -38.539062 35.34375 -37.65625 C 38.0625 -36.78125 40.382812 -35.5 42.3125 -33.8125 C 44.238281 -32.125 45.75 -30.054688 46.84375 -27.609375 C 47.945312 -25.171875 48.5 -22.390625 48.5 -19.265625 C 48.5 -16.234375 47.972656 -13.5 46.921875 -11.0625 C 45.867188 -8.625 44.378906 -6.546875 42.453125 -4.828125 C 40.523438 -3.117188 38.207031 -1.8125 35.5 -0.90625 C 32.789062 -0.0078125 29.773438 0.4375 26.453125 0.4375 C 23.128906 0.4375 20.109375 -0.0234375 17.390625 -0.953125 C 14.679688 -1.878906 12.363281 -3.195312 10.4375 -4.90625 C 8.507812 -6.613281 7.019531 -8.675781 5.96875 -11.09375 C 4.914062 -13.507812 4.390625 -16.234375 4.390625 -19.265625 C 4.390625 -22.390625 4.925781 -25.171875 6 -27.609375 C 7.082031 -30.054688 8.597656 -32.125 10.546875 -33.8125 C 12.503906 -35.5 14.835938 -36.78125 17.546875 -37.65625 C 20.253906 -38.539062 23.222656 -38.984375 26.453125 -38.984375 Z M 26.453125 -38.984375 "/></g></g></g><g fill="#52050a" fill-opacity="1"><g transform="translate(411.369942, 52.528832)"><g><path d="M 16.5625 -38.53125 L 16.5625 -37.65625 C 15.820312 -37.65625 15.34375 -37.472656 15.125 -37.109375 C 14.90625 -36.742188 14.796875 -36.242188 14.796875 -35.609375 L 14.796875 -4.828125 L 39.421875 -4.828125 C 41.128906 -4.828125 41.984375 -5.5625 41.984375 -7.03125 L 42.859375 -7.03125 L 42.859375 1.609375 L 41.984375 1.609375 C 41.984375 0.972656 41.773438 0.546875 41.359375 0.328125 C 40.941406 0.109375 40.316406 0 39.484375 0 L 6.890625 0 L 6.890625 -0.875 C 7.566406 -0.875 8.023438 -1.03125 8.265625 -1.34375 C 8.515625 -1.664062 8.640625 -2.097656 8.640625 -2.640625 L 8.640625 -35.90625 C 8.640625 -36.382812 8.53125 -36.796875 8.3125 -37.140625 C 8.09375 -37.484375 7.617188 -37.65625 6.890625 -37.65625 L 6.890625 -38.53125 Z M 16.5625 -38.53125 "/></g></g></g><g fill="#52050a" fill-opacity="1"><g transform="translate(464.703642, 52.528832)"><g><path d="M 17 -38.53125 L 17 -37.65625 C 16.3125 -37.65625 15.84375 -37.492188 15.59375 -37.171875 C 15.351562 -36.859375 15.234375 -36.4375 15.234375 -35.90625 L 15.234375 -2.640625 C 15.234375 -2.097656 15.351562 -1.664062 15.59375 -1.34375 C 15.84375 -1.03125 16.3125 -0.875 17 -0.875 L 17 0 L 7.328125 0 L 7.328125 -0.875 C 8.015625 -0.875 8.476562 -1.03125 8.71875 -1.34375 C 8.957031 -1.664062 9.078125 -2.097656 9.078125 -2.640625 L 9.078125 -35.90625 C 9.078125 -36.4375 8.957031 -36.859375 8.71875 -37.171875 C 8.476562 -37.492188 8.015625 -37.65625 7.328125 -37.65625 L 7.328125 -38.53125 Z M 17 -38.53125 "/></g></g></g><g fill="#52050a" fill-opacity="1"><g transform="translate(497.671395, 52.528832)"><g><path d="M 10.84375 -19.265625 C 10.84375 -14.628906 12.222656 -11.015625 14.984375 -8.421875 C 17.742188 -5.835938 21.566406 -4.546875 26.453125 -4.546875 C 31.335938 -4.546875 35.15625 -5.828125 37.90625 -8.390625 C 40.664062 -10.953125 42.046875 -14.578125 42.046875 -19.265625 C 42.046875 -23.859375 40.691406 -27.460938 37.984375 -30.078125 C 35.273438 -32.691406 31.40625 -34 26.375 -34 C 21.488281 -34 17.675781 -32.691406 14.9375 -30.078125 C 12.207031 -27.460938 10.84375 -23.859375 10.84375 -19.265625 Z M 26.453125 -38.984375 C 29.671875 -38.984375 32.632812 -38.539062 35.34375 -37.65625 C 38.0625 -36.78125 40.382812 -35.5 42.3125 -33.8125 C 44.238281 -32.125 45.75 -30.054688 46.84375 -27.609375 C 47.945312 -25.171875 48.5 -22.390625 48.5 -19.265625 C 48.5 -16.234375 47.972656 -13.5 46.921875 -11.0625 C 45.867188 -8.625 44.378906 -6.546875 42.453125 -4.828125 C 40.523438 -3.117188 38.207031 -1.8125 35.5 -0.90625 C 32.789062 -0.0078125 29.773438 0.4375 26.453125 0.4375 C 23.128906 0.4375 20.109375 -0.0234375 17.390625 -0.953125 C 14.679688 -1.878906 12.363281 -3.195312 10.4375 -4.90625 C 8.507812 -6.613281 7.019531 -8.675781 5.96875 -11.09375 C 4.914062 -13.507812 4.390625 -16.234375 4.390625 -19.265625 C 4.390625 -22.390625 4.925781 -25.171875 6 -27.609375 C 7.082031 -30.054688 8.597656 -32.125 10.546875 -33.8125 C 12.503906 -35.5 14.835938 -36.78125 17.546875 -37.65625 C 20.253906 -38.539062 23.222656 -38.984375 26.453125 -38.984375 Z M 26.453125 -38.984375 "/></g></g></g></g></g></svg>