<svg xmlns="http://www.w3.org/2000/svg" xmlns:xlink="http://www.w3.org/1999/xlink" width="1870" zoomAndPan="magnify" viewBox="0 0 1402.5 717.000001" height="956" preserveAspectRatio="xMidYMid meet" version="1.0"><defs><g/><clipPath id="e887da0671"><path d="M 0.726562 0 L 1400.523438 0 L 1400.523438 716 L 0.726562 716 Z M 0.726562 0 " clip-rule="nonzero"/></clipPath><clipPath id="63be63c601"><rect x="0" width="912" y="0" height="518"/></clipPath><clipPath id="fdcf104c95"><rect x="0" width="559" y="0" height="73"/></clipPath></defs><g clip-path="url(#e887da0671)"><path fill="#d9d9d9" d="M 698.183594 714.746094 C 580.375 679.484375 455.835938 672.519531 345.957031 666.371094 C 317.070312 664.75 289.796875 663.226562 262.816406 661.257812 C 227.328125 658.667969 198.101562 638.953125 188.863281 612.316406 L 133.714844 612.316406 L 133.714844 603.292969 C 133.714844 579.761719 114.574219 560.617188 91.039062 560.617188 L 82.019531 560.617188 L 82.019531 490.1875 C 32.445312 466.625 0.726562 416.761719 0.726562 361.5 L 0.726562 354.238281 C 0.726562 298.980469 32.445312 249.113281 82.019531 225.5625 L 82.019531 155.128906 L 91.039062 155.128906 C 114.574219 155.128906 133.714844 135.988281 133.714844 112.457031 L 133.714844 103.433594 L 188.863281 103.433594 C 198.101562 76.785156 227.332031 57.082031 262.816406 54.492188 C 289.78125 52.523438 317.054688 51 345.921875 49.390625 C 455.808594 43.238281 580.347656 36.265625 698.171875 1.003906 L 700.761719 0.226562 L 703.347656 1.003906 C 821.171875 36.265625 945.722656 43.238281 1055.601562 49.390625 C 1084.464844 51.007812 1111.742188 52.53125 1138.707031 54.492188 C 1174.191406 57.082031 1203.425781 76.792969 1212.660156 103.433594 L 1267.804688 103.433594 L 1267.804688 112.457031 C 1267.804688 135.988281 1286.945312 155.128906 1310.480469 155.128906 L 1319.5 155.128906 L 1319.5 225.5625 C 1369.085938 249.113281 1400.792969 298.988281 1400.792969 354.238281 L 1400.792969 361.5 C 1400.792969 416.761719 1369.085938 466.625 1319.5 490.175781 L 1319.5 560.609375 L 1310.480469 560.609375 C 1286.945312 560.609375 1267.804688 579.75 1267.804688 603.285156 L 1267.804688 612.304688 L 1212.660156 612.304688 C 1203.425781 638.953125 1174.191406 658.660156 1138.707031 661.246094 C 1111.730469 663.21875 1084.449219 664.742188 1055.566406 666.359375 C 945.6875 672.511719 821.15625 679.484375 703.339844 714.738281 L 700.75 715.511719 L 698.164062 714.738281 Z M 698.183594 714.746094 " fill-opacity="1" fill-rule="nonzero"/></g><path fill="#52050a" d="M 1310.488281 231.398438 L 1310.488281 164.160156 C 1281.9375 164.160156 1258.792969 141.015625 1258.792969 112.464844 L 1205.804688 112.464844 C 1200.601562 86.574219 1173.074219 66.058594 1138.0625 63.496094 C 1004.082031 53.71875 849.457031 54.148438 700.769531 9.644531 C 552.078125 54.148438 397.46875 53.710938 263.476562 63.496094 C 228.464844 66.050781 200.9375 86.5625 195.734375 112.464844 L 142.746094 112.464844 C 142.746094 141.015625 119.597656 164.160156 91.050781 164.160156 L 91.050781 231.398438 C 43.269531 251.691406 9.757812 299.058594 9.757812 354.238281 L 9.757812 361.5 C 9.757812 416.691406 43.269531 464.046875 91.050781 484.34375 L 91.050781 551.582031 C 119.597656 551.582031 142.746094 574.726562 142.746094 603.277344 L 195.734375 603.277344 C 200.9375 629.167969 228.464844 649.683594 263.476562 652.246094 C 397.457031 662.023438 552.078125 661.589844 700.769531 706.097656 C 849.457031 661.589844 1004.070312 662.03125 1138.0625 652.246094 C 1173.074219 649.691406 1200.601562 629.175781 1205.804688 603.277344 L 1258.792969 603.277344 C 1258.792969 574.726562 1281.9375 551.582031 1310.488281 551.582031 L 1310.488281 484.34375 C 1358.269531 464.046875 1391.78125 416.691406 1391.78125 361.5 L 1391.78125 354.238281 C 1391.78125 299.050781 1358.269531 251.691406 1310.488281 231.398438 Z M 1310.488281 231.398438 " fill-opacity="1" fill-rule="nonzero"/><path fill="#d9d9d9" d="M 700.769531 690.414062 C 581.542969 655.449219 457.179688 648.484375 347.300781 642.335938 C 318.523438 640.722656 291.347656 639.203125 264.574219 637.246094 C 237.125 635.242188 214.382812 619.714844 210.484375 600.320312 L 208.054688 588.234375 L 156.078125 588.234375 C 150.359375 563.488281 130.839844 543.96875 106.089844 538.246094 L 106.089844 474.390625 L 96.929688 470.5 C 53.109375 451.886719 24.796875 409.09375 24.796875 361.492188 L 24.796875 354.230469 C 24.796875 306.628906 53.109375 263.847656 96.929688 245.226562 L 106.089844 241.335938 L 106.089844 177.476562 C 130.839844 171.753906 150.359375 152.234375 156.078125 127.488281 L 208.054688 127.488281 L 210.484375 115.402344 C 214.375 96.015625 237.125 80.480469 264.574219 78.476562 C 291.339844 76.523438 318.507812 75 347.277344 73.398438 C 457.164062 67.246094 581.535156 60.292969 700.769531 25.320312 C 820.003906 60.292969 944.375 67.246094 1054.269531 73.398438 C 1083.03125 75.007812 1110.210938 76.53125 1136.972656 78.476562 C 1164.421875 80.480469 1187.164062 96.007812 1191.0625 115.402344 L 1193.492188 127.488281 L 1245.46875 127.488281 C 1251.1875 152.234375 1270.710938 171.753906 1295.457031 177.476562 L 1295.457031 241.335938 L 1304.617188 245.226562 C 1348.4375 263.839844 1376.75 306.628906 1376.75 354.230469 L 1376.75 361.492188 C 1376.75 409.09375 1348.4375 451.886719 1304.617188 470.5 L 1295.457031 474.390625 L 1295.457031 538.246094 C 1270.710938 543.96875 1251.1875 563.488281 1245.46875 588.234375 L 1193.492188 588.234375 L 1191.0625 600.320312 C 1187.171875 619.707031 1164.421875 635.242188 1136.972656 637.246094 C 1110.199219 639.203125 1083.015625 640.722656 1054.246094 642.335938 C 944.367188 648.484375 820.003906 655.4375 700.777344 690.414062 Z M 700.769531 690.414062 " fill-opacity="1" fill-rule="nonzero"/><path fill="#52050a" d="M 700.769531 677.882812 L 699.941406 677.644531 C 580.71875 643.355469 457.117188 636.4375 348.066406 630.332031 C 319.378906 628.726562 292.304688 627.214844 265.457031 625.253906 C 240.609375 623.429688 224.671875 609.832031 222.289062 597.953125 L 217.921875 576.207031 L 165.054688 576.207031 L 164.296875 574.3125 C 156.28125 554.195312 140.140625 538.054688 120.023438 530.035156 L 118.128906 529.277344 L 118.128906 466.425781 L 101.636719 459.417969 C 62.269531 442.695312 36.835938 404.253906 36.835938 361.492188 L 36.835938 354.230469 C 36.835938 311.46875 62.269531 273.027344 101.644531 256.304688 L 118.128906 249.308594 L 118.128906 186.453125 L 120.023438 185.695312 C 140.140625 177.6875 156.28125 161.546875 164.296875 141.417969 L 165.054688 139.527344 L 217.921875 139.527344 L 222.289062 117.78125 C 224.671875 105.90625 240.609375 92.300781 265.457031 90.480469 C 292.078125 88.542969 319.085938 87.03125 347.679688 85.429688 L 348.042969 85.410156 C 457.109375 79.304688 580.71875 72.386719 699.949219 38.097656 L 700.777344 37.859375 L 701.605469 38.097656 C 820.839844 72.386719 944.445312 79.3125 1053.503906 85.410156 L 1053.894531 85.4375 C 1082.390625 87.03125 1109.3125 88.535156 1136.09375 90.488281 C 1160.9375 92.3125 1176.875 105.90625 1179.261719 117.789062 L 1183.625 139.535156 L 1236.492188 139.535156 L 1237.25 141.429688 C 1245.265625 161.546875 1261.40625 177.6875 1281.523438 185.703125 L 1283.417969 186.460938 L 1283.417969 249.316406 L 1299.910156 256.324219 C 1339.277344 273.042969 1364.710938 311.484375 1364.710938 354.25 L 1364.710938 361.507812 C 1364.710938 404.273438 1339.277344 442.714844 1299.902344 459.4375 L 1283.417969 466.433594 L 1283.417969 529.289062 L 1281.523438 530.042969 C 1261.40625 538.0625 1245.265625 554.195312 1237.25 574.320312 L 1236.492188 576.214844 L 1183.625 576.214844 L 1179.261719 597.960938 C 1176.875 609.832031 1160.9375 623.4375 1136.09375 625.261719 C 1109.300781 627.214844 1082.230469 628.726562 1053.566406 630.332031 C 944.472656 636.4375 820.828125 643.355469 701.605469 677.644531 L 700.777344 677.882812 Z M 169.105469 570.195312 L 222.851562 570.195312 L 228.191406 596.773438 C 230.128906 606.402344 245.089844 617.726562 265.894531 619.25 C 292.695312 621.203125 319.746094 622.71875 348.386719 624.320312 C 457.523438 630.425781 581.167969 637.351562 700.777344 671.625 C 820.398438 637.351562 944.078125 630.425781 1053.222656 624.320312 C 1081.871094 622.71875 1108.925781 621.203125 1135.660156 619.25 C 1156.464844 617.726562 1171.4375 606.390625 1173.363281 596.773438 L 1178.707031 570.195312 L 1232.453125 570.195312 C 1241.050781 550.058594 1257.269531 533.828125 1277.414062 525.230469 L 1277.414062 462.445312 L 1297.570312 453.890625 C 1334.707031 438.113281 1358.707031 401.84375 1358.707031 361.5 L 1358.707031 354.238281 C 1358.707031 313.886719 1334.707031 277.628906 1297.570312 261.847656 L 1277.414062 253.285156 L 1277.414062 190.5 C 1257.277344 181.902344 1241.050781 165.683594 1232.453125 145.539062 L 1178.707031 145.539062 L 1173.363281 118.960938 C 1171.4375 109.332031 1156.464844 98.003906 1135.660156 96.480469 C 1108.925781 94.527344 1082.027344 93.03125 1053.558594 91.4375 L 1053.199219 91.421875 C 944.058594 85.3125 820.40625 78.386719 700.777344 44.117188 C 581.15625 78.386719 457.507812 85.3125 348.386719 91.421875 L 348.007812 91.4375 C 319.457031 93.042969 292.472656 94.546875 265.902344 96.480469 C 245.097656 98.003906 230.128906 109.339844 228.203125 118.960938 L 222.859375 145.539062 L 169.113281 145.539062 C 160.515625 165.675781 144.285156 181.902344 124.148438 190.5 L 124.148438 253.285156 L 103.996094 261.839844 C 66.855469 277.621094 42.855469 313.886719 42.855469 354.230469 L 42.855469 361.492188 C 42.855469 401.835938 66.855469 438.101562 103.996094 453.882812 L 124.148438 462.445312 L 124.148438 525.230469 C 144.285156 533.828125 160.515625 550.050781 169.113281 570.195312 Z M 169.105469 570.195312 " fill-opacity="1" fill-rule="nonzero"/><path fill="#52050a" d="M 121.957031 357.875 C 121.957031 358.503906 121.898438 359.128906 121.773438 359.746094 C 121.652344 360.363281 121.46875 360.964844 121.226562 361.546875 C 120.988281 362.128906 120.691406 362.679688 120.339844 363.203125 C 119.992188 363.726562 119.59375 364.210938 119.148438 364.65625 C 118.703125 365.101562 118.21875 365.5 117.695312 365.851562 C 117.171875 366.199219 116.617188 366.496094 116.035156 366.738281 C 115.453125 366.980469 114.855469 367.160156 114.238281 367.285156 C 113.617188 367.40625 112.996094 367.46875 112.363281 367.46875 C 111.734375 367.46875 111.113281 367.40625 110.492188 367.285156 C 109.875 367.160156 109.277344 366.980469 108.695312 366.738281 C 108.113281 366.496094 107.558594 366.199219 107.035156 365.851562 C 106.511719 365.5 106.027344 365.101562 105.582031 364.65625 C 105.136719 364.210938 104.738281 363.726562 104.390625 363.203125 C 104.039062 362.679688 103.742188 362.128906 103.503906 361.546875 C 103.261719 360.964844 103.078125 360.363281 102.957031 359.746094 C 102.832031 359.128906 102.773438 358.503906 102.773438 357.875 C 102.773438 357.246094 102.832031 356.621094 102.957031 356.003906 C 103.078125 355.386719 103.261719 354.785156 103.503906 354.203125 C 103.742188 353.621094 104.039062 353.070312 104.390625 352.546875 C 104.738281 352.023438 105.136719 351.535156 105.582031 351.089844 C 106.027344 350.644531 106.511719 350.25 107.035156 349.898438 C 107.558594 349.546875 108.113281 349.253906 108.695312 349.011719 C 109.277344 348.769531 109.875 348.589844 110.492188 348.464844 C 111.113281 348.34375 111.734375 348.28125 112.363281 348.28125 C 112.996094 348.28125 113.617188 348.34375 114.238281 348.464844 C 114.855469 348.589844 115.453125 348.769531 116.035156 349.011719 C 116.617188 349.253906 117.171875 349.546875 117.695312 349.898438 C 118.21875 350.25 118.703125 350.644531 119.148438 351.089844 C 119.59375 351.535156 119.992188 352.023438 120.339844 352.546875 C 120.691406 353.070312 120.988281 353.621094 121.226562 354.203125 C 121.46875 354.785156 121.652344 355.386719 121.773438 356.003906 C 121.898438 356.621094 121.957031 357.246094 121.957031 357.875 Z M 121.957031 357.875 " fill-opacity="1" fill-rule="nonzero"/><path fill="#52050a" d="M 1298.757812 357.875 C 1298.757812 358.503906 1298.695312 359.128906 1298.574219 359.746094 C 1298.449219 360.363281 1298.269531 360.964844 1298.027344 361.546875 C 1297.785156 362.128906 1297.492188 362.679688 1297.140625 363.203125 C 1296.789062 363.726562 1296.394531 364.210938 1295.949219 364.65625 C 1295.503906 365.101562 1295.019531 365.5 1294.492188 365.851562 C 1293.96875 366.199219 1293.417969 366.496094 1292.835938 366.738281 C 1292.253906 366.980469 1291.652344 367.160156 1291.035156 367.285156 C 1290.417969 367.40625 1289.792969 367.46875 1289.164062 367.46875 C 1288.535156 367.46875 1287.910156 367.40625 1287.292969 367.285156 C 1286.675781 367.160156 1286.074219 366.980469 1285.492188 366.738281 C 1284.910156 366.496094 1284.359375 366.199219 1283.835938 365.851562 C 1283.3125 365.5 1282.828125 365.101562 1282.382812 364.65625 C 1281.9375 364.210938 1281.539062 363.726562 1281.1875 363.203125 C 1280.839844 362.679688 1280.542969 362.128906 1280.300781 361.546875 C 1280.0625 360.964844 1279.878906 360.363281 1279.757812 359.746094 C 1279.632812 359.128906 1279.570312 358.503906 1279.570312 357.875 C 1279.570312 357.246094 1279.632812 356.621094 1279.757812 356.003906 C 1279.878906 355.386719 1280.0625 354.785156 1280.300781 354.203125 C 1280.542969 353.621094 1280.839844 353.070312 1281.1875 352.546875 C 1281.539062 352.023438 1281.9375 351.535156 1282.382812 351.089844 C 1282.828125 350.644531 1283.3125 350.25 1283.835938 349.898438 C 1284.359375 349.546875 1284.910156 349.253906 1285.492188 349.011719 C 1286.074219 348.769531 1286.675781 348.589844 1287.292969 348.464844 C 1287.910156 348.34375 1288.535156 348.28125 1289.164062 348.28125 C 1289.792969 348.28125 1290.417969 348.34375 1291.035156 348.464844 C 1291.652344 348.589844 1292.253906 348.769531 1292.835938 349.011719 C 1293.417969 349.253906 1293.96875 349.546875 1294.492188 349.898438 C 1295.019531 350.25 1295.503906 350.644531 1295.949219 351.089844 C 1296.394531 351.535156 1296.789062 352.023438 1297.140625 352.546875 C 1297.492188 353.070312 1297.785156 353.621094 1298.027344 354.203125 C 1298.269531 354.785156 1298.449219 355.386719 1298.574219 356.003906 C 1298.695312 356.621094 1298.757812 357.246094 1298.757812 357.875 Z M 1298.757812 357.875 " fill-opacity="1" fill-rule="nonzero"/><g transform="matrix(1, 0, 0, 1, 239, 99)"><g clip-path="url(#63be63c601)"><g fill="#52050a" fill-opacity="1"><g transform="translate(19.535302, 356.412304)"><g><path d="M 5.46875 -84.3125 C 7.738281 -86.125 9.671875 -86.460938 11.265625 -85.328125 C 12.398438 -84.191406 11.375 -82.144531 8.1875 -79.1875 C 0.457031 -72.132812 -5 -64.625 -8.1875 -56.65625 C -11.601562 -48.695312 -11.945312 -41.984375 -9.21875 -36.515625 C -6.71875 -31.054688 -1.367188 -28.328125 6.828125 -28.328125 C 20.484375 -28.097656 39.03125 -40.613281 62.46875 -65.875 C 85.675781 -91.132812 103.992188 -116.164062 117.421875 -140.96875 C 91.472656 -134.820312 74.742188 -129.25 67.234375 -124.25 C 65.191406 -123.789062 64.171875 -124.472656 64.171875 -126.296875 C 63.941406 -127.890625 64.394531 -128.910156 65.53125 -129.359375 C 77.363281 -134.597656 95.796875 -140.0625 120.828125 -145.75 C 135.847656 -171.914062 148.816406 -199.332031 159.734375 -228 C 170.429688 -256.445312 176.921875 -279.773438 179.203125 -297.984375 C 178.972656 -298.890625 181.25 -299.457031 186.03125 -299.6875 C 190.800781 -299.914062 195.460938 -299.117188 200.015625 -297.296875 C 204.335938 -295.242188 206.273438 -292.054688 205.828125 -287.734375 C 199.453125 -235.171875 197.628906 -190.914062 200.359375 -154.96875 C 218.109375 -154.507812 230.96875 -151.09375 238.9375 -144.71875 C 246.664062 -138.351562 249.394531 -130.847656 247.125 -122.203125 C 246.4375 -119.921875 245.640625 -118.664062 244.734375 -118.4375 C 244.046875 -118.4375 243.585938 -118.78125 243.359375 -119.46875 L 243.359375 -122.203125 C 245.179688 -129.929688 242.566406 -136.53125 235.515625 -142 C 228.234375 -147.457031 216.628906 -150.300781 200.703125 -150.53125 C 203.203125 -122.769531 208.660156 -96.03125 217.078125 -70.3125 C 225.503906 -44.601562 236.316406 -23.441406 249.515625 -6.828125 C 262.710938 9.785156 276.363281 17.863281 290.46875 17.40625 C 292.519531 17.175781 293.660156 17.40625 293.890625 18.09375 C 293.890625 18.769531 292.632812 19.222656 290.125 19.453125 C 276.476562 21.273438 263.507812 18.316406 251.21875 10.578125 C 238.695312 3.066406 228.113281 -7.171875 219.46875 -20.140625 C 210.820312 -32.878906 203.203125 -47.328125 196.609375 -63.484375 C 189.773438 -79.640625 184.65625 -95.113281 181.25 -109.90625 C 177.832031 -124.46875 175.671875 -137.664062 174.765625 -149.5 C 163.609375 -148.59375 146.878906 -146.203125 124.578125 -142.328125 C 114.117188 -124.578125 102.515625 -107.171875 89.765625 -90.109375 C 76.796875 -73.046875 62.578125 -57.6875 47.109375 -44.03125 C 31.628906 -30.375 18.539062 -23.660156 7.84375 -23.890625 C -7.625 -24.117188 -15.472656 -30.71875 -15.703125 -43.6875 C -16.160156 -56.65625 -9.101562 -70.195312 5.46875 -84.3125 Z M 128.34375 -147.453125 C 147.457031 -150.640625 162.703125 -152.6875 174.078125 -153.59375 C 172.484375 -180.90625 172.484375 -204.34375 174.078125 -223.90625 C 175.441406 -243.25 177.601562 -258.835938 180.5625 -270.671875 C 167.820312 -227.441406 150.414062 -186.367188 128.34375 -147.453125 Z M 128.34375 -147.453125 "/></g></g></g><g fill="#52050a" fill-opacity="1"><g transform="translate(282.3519, 356.412304)"><g><path d="M 12.96875 -123.21875 C 17.75 -133.914062 20.820312 -145.75 22.1875 -158.71875 L 22.1875 -167.9375 C 21.050781 -176.351562 18.09375 -181.359375 13.3125 -182.953125 C 8.53125 -184.316406 2.84375 -181.695312 -3.75 -175.09375 C -8.53125 -170.550781 -11.375 -164.75 -12.28125 -157.6875 C -13.425781 -150.40625 -12.175781 -143.238281 -8.53125 -136.1875 C -5.113281 -129.132812 0.457031 -124.015625 8.1875 -120.828125 C 4.550781 -112.179688 1.59375 -105.582031 -0.6875 -101.03125 L 3.078125 -101.03125 L 11.609375 -119.46875 C 22.078125 -116.050781 27.648438 -112.863281 28.328125 -109.90625 L 29.015625 -105.8125 C 29.015625 -104.90625 28.671875 -103.195312 27.984375 -100.6875 C 27.078125 -98.1875 26.28125 -96.140625 25.59375 -94.546875 C 24.914062 -92.953125 23.894531 -90.5625 22.53125 -87.375 C 21.164062 -83.96875 20.023438 -81.007812 19.109375 -78.5 C 15.472656 -69.625 12.859375 -59.84375 11.265625 -49.15625 C 9.441406 -38.226562 9.441406 -27.414062 11.265625 -16.71875 C 13.085938 -6.03125 17.296875 1.132812 23.890625 4.78125 C 26.390625 5.914062 28.78125 6.144531 31.0625 5.46875 C 39.476562 2.28125 60.1875 -33.675781 93.1875 -102.40625 L 89.421875 -102.40625 C 57.566406 -38.226562 38 -4.4375 30.71875 -1.03125 C 26.394531 0.789062 27.535156 -11.945312 34.140625 -39.25 C 37.546875 -54.269531 41.640625 -68.832031 46.421875 -82.9375 C 49.835938 -90 51.429688 -95.578125 51.203125 -99.671875 C 50.972656 -103.765625 47.332031 -107.859375 40.28125 -111.953125 C 38 -113.316406 33.5625 -115.253906 26.96875 -117.765625 C 20.132812 -120.265625 15.46875 -122.082031 12.96875 -123.21875 Z M 9.5625 -124.578125 C -1.820312 -128.898438 -5.460938 -138.347656 -1.359375 -152.921875 C 1.367188 -162.703125 5.460938 -169.410156 10.921875 -173.046875 C 14.566406 -175.785156 16.84375 -174.992188 17.75 -170.671875 C 18.425781 -167.929688 18.539062 -164.0625 18.09375 -159.0625 C 17.40625 -148.132812 14.5625 -136.640625 9.5625 -124.578125 Z M 9.5625 -124.578125 "/></g></g></g><g fill="#52050a" fill-opacity="1"><g transform="translate(352.321853, 356.412304)"><g><path d="M 24.921875 -100.6875 C 24.691406 -98.414062 23.894531 -93.640625 22.53125 -86.359375 C 21.164062 -79.078125 20.253906 -73.273438 19.796875 -68.953125 C 19.109375 -64.398438 18.65625 -59.503906 18.4375 -54.265625 C 17.976562 -48.804688 18.203125 -45.050781 19.109375 -43 C 20.023438 -40.957031 21.734375 -40.734375 24.234375 -42.328125 C 28.785156 -45.285156 35.382812 -53.25 44.03125 -66.21875 C 52.445312 -79.1875 59.390625 -91.25 64.859375 -102.40625 L 68.953125 -102.40625 C 62.117188 -88.0625 53.695312 -73.722656 43.6875 -59.390625 C 33.675781 -44.828125 25.941406 -36.75 20.484375 -35.15625 C 11.378906 -32.65625 4.894531 -37.4375 1.03125 -49.5 C -2.84375 -61.550781 -3.984375 -74.632812 -2.390625 -88.75 C -1.023438 -102.851562 1.59375 -111.15625 5.46875 -113.65625 C 6.375 -113.65625 8.421875 -113.769531 11.609375 -114 C 14.796875 -114.226562 17.976562 -113.207031 21.15625 -110.9375 C 24.34375 -108.425781 25.597656 -105.007812 24.921875 -100.6875 Z M 27.3125 -161.453125 C 29.8125 -159.171875 31.175781 -156.210938 31.40625 -152.578125 C 31.40625 -148.929688 30.265625 -145.628906 27.984375 -142.671875 C 25.941406 -139.710938 23.328125 -138.007812 20.140625 -137.5625 C 16.722656 -136.875 13.878906 -137.554688 11.609375 -139.609375 C 9.328125 -141.878906 8.1875 -144.835938 8.1875 -148.484375 C 7.957031 -152.117188 8.867188 -155.414062 10.921875 -158.375 C 13.191406 -161.5625 15.921875 -163.492188 19.109375 -164.171875 C 22.066406 -164.628906 24.800781 -163.722656 27.3125 -161.453125 Z M 27.3125 -161.453125 "/></g></g></g><g fill="#52050a" fill-opacity="1"><g transform="translate(397.716705, 356.412304)"><g><path d="M 116.390625 -41.984375 C 116.390625 -47.441406 116.957031 -54.722656 118.09375 -63.828125 C 119.007812 -72.703125 120.148438 -81.125 121.515625 -89.09375 C 122.648438 -96.820312 123.785156 -104.785156 124.921875 -112.984375 C 125.835938 -121.171875 126.40625 -127.195312 126.625 -131.0625 C 126.625 -134.9375 125.941406 -137.328125 124.578125 -138.234375 C 120.253906 -138.460938 112.75 -128.566406 102.0625 -108.546875 C 91.132812 -88.296875 84.304688 -70.882812 81.578125 -56.3125 C 80.671875 -51.3125 79.191406 -47.671875 77.140625 -45.390625 C 75.085938 -42.890625 72.925781 -42.09375 70.65625 -43 C 68.15625 -43.6875 66.222656 -45.960938 64.859375 -49.828125 C 59.847656 -63.484375 59.617188 -89.425781 64.171875 -127.65625 C 66.671875 -147.675781 63.367188 -149.5 54.265625 -133.125 C 53.585938 -132.207031 53.25 -131.632812 53.25 -131.40625 C 46.644531 -119.570312 40.273438 -103.757812 34.140625 -83.96875 C 27.992188 -64.164062 25.144531 -48.804688 25.59375 -37.890625 C 25.59375 -37.203125 24.796875 -36.742188 23.203125 -36.515625 C 21.390625 -36.066406 19.226562 -36.066406 16.71875 -36.515625 C 14.21875 -36.742188 12.285156 -37.316406 10.921875 -38.234375 C 11.609375 -45.054688 10.925781 -54.722656 8.875 -67.234375 C 6.601562 -79.523438 3.644531 -91.132812 0 -102.0625 C -0.457031 -103.425781 0.90625 -104.90625 4.09375 -106.5 C 7.050781 -107.863281 10.238281 -108.660156 13.65625 -108.890625 C 17.0625 -108.890625 19.90625 -107.863281 22.1875 -105.8125 C 23.320312 -104.21875 24.117188 -96.253906 24.578125 -81.921875 C 24.804688 -67.359375 24.578125 -58.9375 23.890625 -56.65625 C 25.484375 -68.488281 30.035156 -84.53125 37.546875 -104.78125 C 45.054688 -125.039062 52.335938 -139.265625 59.390625 -147.453125 C 64.171875 -152.910156 69.175781 -154.503906 74.40625 -152.234375 C 79.414062 -149.953125 83.171875 -144.601562 85.671875 -136.1875 C 86.578125 -129.132812 86.921875 -123.21875 86.703125 -118.4375 C 86.242188 -113.4375 85.332031 -105.585938 83.96875 -94.890625 C 82.375 -83.960938 81.460938 -76 81.234375 -71 C 84.878906 -82.144531 90.796875 -95.457031 98.984375 -110.9375 C 106.953125 -126.175781 115.144531 -137.4375 123.5625 -144.71875 C 131.070312 -151.320312 138.007812 -152.003906 144.375 -146.765625 C 150.75 -141.304688 153.023438 -133.800781 151.203125 -124.25 C 150.296875 -119.695312 148.132812 -109.679688 144.71875 -94.203125 C 141.082031 -78.734375 138.007812 -64.625 135.5 -51.875 C 133 -39.132812 131.75 -30.148438 131.75 -24.921875 C 131.75 -20.367188 132.773438 -17.410156 134.828125 -16.046875 C 136.867188 -14.453125 139.828125 -15.472656 143.703125 -19.109375 C 154.847656 -32.304688 171.003906 -60.070312 192.171875 -102.40625 L 196.265625 -102.40625 C 195.804688 -101.488281 194.097656 -97.84375 191.140625 -91.46875 C 187.953125 -84.875 184.769531 -78.390625 181.59375 -72.015625 C 178.175781 -65.421875 174.304688 -58.253906 169.984375 -50.515625 C 165.660156 -42.773438 161.335938 -35.722656 157.015625 -29.359375 C 152.460938 -22.753906 148.25 -17.742188 144.375 -14.328125 C 138.914062 -10.003906 134.367188 -7.957031 130.734375 -8.1875 C 127.085938 -8.1875 124.242188 -10.347656 122.203125 -14.671875 C 120.148438 -18.992188 118.671875 -23.546875 117.765625 -28.328125 C 116.847656 -32.878906 116.390625 -37.429688 116.390625 -41.984375 Z M 116.390625 -41.984375 "/></g></g></g><g fill="#52050a" fill-opacity="1"><g transform="translate(570.424158, 356.412304)"><g><path d="M 53.25 -126.625 C 58.707031 -128.21875 63.257812 -125.945312 66.90625 -119.8125 C 70.3125 -113.4375 72.015625 -103.648438 72.015625 -90.453125 C 71.785156 -77.253906 69.398438 -62.578125 64.859375 -46.421875 C 64.171875 -45.960938 58.9375 -43.34375 49.15625 -38.5625 C 39.363281 -33.789062 31.171875 -29.015625 24.578125 -24.234375 C 17.523438 -19.003906 15.019531 -13.316406 17.0625 -7.171875 C 19.113281 -0.796875 24.347656 1.476562 32.765625 -0.34375 C 41.410156 -2.164062 50.628906 -7.625 60.421875 -16.71875 C 69.972656 -25.820312 77.707031 -36.972656 83.625 -50.171875 C 88.632812 -53.359375 95.460938 -59.734375 104.109375 -69.296875 C 112.523438 -78.617188 119.921875 -89.65625 126.296875 -102.40625 L 122.53125 -102.40625 C 112.0625 -82.375 99.890625 -67.125 86.015625 -56.65625 C 91.703125 -72.582031 94.546875 -88.171875 94.546875 -103.421875 C 94.316406 -118.441406 90.789062 -129.023438 83.96875 -135.171875 C 78.507812 -139.265625 72.59375 -140.628906 66.21875 -139.265625 C 59.84375 -137.898438 53.925781 -134.828125 48.46875 -130.046875 C 41.414062 -123.441406 35.5 -113.65625 30.71875 -100.6875 C 25.707031 -87.488281 22.296875 -75.316406 20.484375 -64.171875 C 20.253906 -70.316406 19.796875 -76.6875 19.109375 -83.28125 C 18.429688 -89.882812 17.75 -95.347656 17.0625 -99.671875 C 16.15625 -103.992188 15.242188 -108.085938 14.328125 -111.953125 C 13.421875 -115.828125 12.96875 -118.101562 12.96875 -118.78125 C 36.632812 -170.664062 52.335938 -214.128906 60.078125 -249.171875 C 62.804688 -262.367188 63.488281 -274.769531 62.125 -286.375 C 60.757812 -298.207031 56.660156 -306.851562 49.828125 -312.3125 C 42.773438 -317.769531 34.925781 -320.046875 26.28125 -319.140625 C 17.632812 -318.003906 9.21875 -314.816406 1.03125 -309.578125 C -21.5 -295.242188 -32.3125 -269.421875 -31.40625 -232.109375 C -31.175781 -217.992188 -28.785156 -202.0625 -24.234375 -184.3125 C -19.910156 -166.34375 -15.242188 -150.53125 -10.234375 -136.875 C -5.234375 -122.988281 -0.910156 -108.082031 2.734375 -92.15625 C 6.367188 -76.226562 7.734375 -62.578125 6.828125 -51.203125 C 9.097656 -47.554688 13.304688 -46.191406 19.453125 -47.109375 C 21.503906 -47.554688 22.53125 -48.125 22.53125 -48.8125 C 22.070312 -57.914062 25.367188 -72.820312 32.421875 -93.53125 C 39.472656 -114.007812 46.414062 -125.039062 53.25 -126.625 Z M 11.609375 -125.953125 C 5.691406 -152.117188 1.476562 -174.414062 -1.03125 -192.84375 C -3.757812 -211.28125 -4.550781 -228.347656 -3.40625 -244.046875 C -2.5 -259.523438 0.679688 -272.609375 6.140625 -283.296875 C 11.148438 -293.316406 17.410156 -301.054688 24.921875 -306.515625 C 32.203125 -311.972656 39.023438 -313.222656 45.390625 -310.265625 C 51.765625 -307.078125 55.863281 -299 57.6875 -286.03125 C 59.28125 -274.65625 58.710938 -262.484375 55.984375 -249.515625 C 50.515625 -223.347656 35.722656 -182.160156 11.609375 -125.953125 Z M 63.140625 -41.296875 C 57.453125 -26.503906 48.125 -15.128906 35.15625 -7.171875 C 27.644531 -2.617188 22.867188 -2.617188 20.828125 -7.171875 C 18.546875 -11.492188 20.132812 -15.816406 25.59375 -20.140625 C 34.46875 -27.421875 46.984375 -34.472656 63.140625 -41.296875 Z M 63.140625 -41.296875 "/></g></g></g><g fill="#52050a" fill-opacity="1"><g transform="translate(673.502169, 356.412304)"><g><path d="M 24.921875 -100.6875 C 24.691406 -98.414062 23.894531 -93.640625 22.53125 -86.359375 C 21.164062 -79.078125 20.253906 -73.273438 19.796875 -68.953125 C 19.109375 -64.398438 18.65625 -59.503906 18.4375 -54.265625 C 17.976562 -48.804688 18.203125 -45.050781 19.109375 -43 C 20.023438 -40.957031 21.734375 -40.734375 24.234375 -42.328125 C 28.785156 -45.285156 35.382812 -53.25 44.03125 -66.21875 C 52.445312 -79.1875 59.390625 -91.25 64.859375 -102.40625 L 68.953125 -102.40625 C 62.117188 -88.0625 53.695312 -73.722656 43.6875 -59.390625 C 33.675781 -44.828125 25.941406 -36.75 20.484375 -35.15625 C 11.378906 -32.65625 4.894531 -37.4375 1.03125 -49.5 C -2.84375 -61.550781 -3.984375 -74.632812 -2.390625 -88.75 C -1.023438 -102.851562 1.59375 -111.15625 5.46875 -113.65625 C 6.375 -113.65625 8.421875 -113.769531 11.609375 -114 C 14.796875 -114.226562 17.976562 -113.207031 21.15625 -110.9375 C 24.34375 -108.425781 25.597656 -105.007812 24.921875 -100.6875 Z M 27.3125 -161.453125 C 29.8125 -159.171875 31.175781 -156.210938 31.40625 -152.578125 C 31.40625 -148.929688 30.265625 -145.628906 27.984375 -142.671875 C 25.941406 -139.710938 23.328125 -138.007812 20.140625 -137.5625 C 16.722656 -136.875 13.878906 -137.554688 11.609375 -139.609375 C 9.328125 -141.878906 8.1875 -144.835938 8.1875 -148.484375 C 7.957031 -152.117188 8.867188 -155.414062 10.921875 -158.375 C 13.191406 -161.5625 15.921875 -163.492188 19.109375 -164.171875 C 22.066406 -164.628906 24.800781 -163.722656 27.3125 -161.453125 Z M 27.3125 -161.453125 "/></g></g></g><g fill="#52050a" fill-opacity="1"><g transform="translate(718.897021, 356.412304)"><g><path d="M 30.71875 -298.328125 C 33.90625 -296.503906 35.15625 -293.65625 34.46875 -289.78125 C 34.25 -285.238281 31.066406 -278.984375 24.921875 -271.015625 C 18.546875 -263.046875 12.0625 -258.492188 5.46875 -257.359375 C 10.695312 -262.816406 14.335938 -268.050781 16.390625 -273.0625 C 14.566406 -273.0625 12.972656 -273.40625 11.609375 -274.09375 C 9.554688 -275.226562 8.414062 -277.5 8.1875 -280.90625 C 7.957031 -284.320312 9.097656 -287.851562 11.609375 -291.5 C 14.109375 -294.675781 17.40625 -296.953125 21.5 -298.328125 C 25.375 -299.460938 28.445312 -299.460938 30.71875 -298.328125 Z M 30.71875 -298.328125 "/></g></g></g><g fill="#52050a" fill-opacity="1"><g transform="translate(741.082106, 356.412304)"><g/></g></g><g fill="#52050a" fill-opacity="1"><g transform="translate(805.932202, 356.412304)"><g><path d="M 97.96875 -102.40625 L 102.0625 -102.40625 C 96.59375 -91.476562 89.878906 -80.894531 81.921875 -70.65625 C 73.722656 -60.414062 66.894531 -52.789062 61.4375 -47.78125 C 66.675781 -34.8125 69.066406 -22.410156 68.609375 -10.578125 C 68.148438 1.253906 65.304688 11.832031 60.078125 21.15625 C 50.066406 38.90625 36.640625 49.488281 19.796875 52.90625 C 6.367188 55.40625 -3.53125 52.675781 -9.90625 44.71875 C -16.726562 36.519531 -16.382812 25.820312 -8.875 12.625 C -6.601562 8.53125 -3.53125 4.207031 0.34375 -0.34375 C 4.207031 -4.894531 8.414062 -9.21875 12.96875 -13.3125 C 17.289062 -17.40625 21.160156 -20.929688 24.578125 -23.890625 C 27.992188 -26.847656 31.519531 -29.691406 35.15625 -32.421875 C 38.570312 -35.148438 40.394531 -36.628906 40.625 -36.859375 C 38.800781 -40.734375 33.566406 -49.039062 24.921875 -61.78125 C 16.273438 -74.519531 10.015625 -84.191406 6.140625 -90.796875 C -10.691406 -119.460938 -15.695312 -144.378906 -8.875 -165.546875 C -5.007812 -177.828125 1.472656 -186.359375 10.578125 -191.140625 C 18.546875 -195.234375 24.007812 -193.984375 26.96875 -187.390625 C 29.007812 -183.296875 29.347656 -177.265625 27.984375 -169.296875 C 25.253906 -152.460938 20.019531 -136.078125 12.28125 -120.140625 C 14.789062 -115.367188 22.300781 -104.90625 34.8125 -88.75 C 47.332031 -72.363281 55.640625 -60.070312 59.734375 -51.875 C 64.960938 -56.195312 71.675781 -63.59375 79.875 -74.0625 C 87.832031 -84.53125 93.863281 -93.976562 97.96875 -102.40625 Z M 42.328125 -32.765625 C 35.722656 -28.441406 27.414062 -21.726562 17.40625 -12.625 C 7.164062 -3.300781 -0.34375 5.457031 -5.125 13.65625 C -12.851562 26.625 -12.851562 36.632812 -5.125 43.6875 C 1.476562 49.832031 9.785156 50.972656 19.796875 47.109375 C 30.722656 42.785156 38.6875 33.796875 43.6875 20.140625 C 50.519531 0.796875 50.066406 -16.835938 42.328125 -32.765625 Z M 9.90625 -123.5625 C 16.957031 -139.257812 21.734375 -154.390625 24.234375 -168.953125 C 26.285156 -181.921875 24.921875 -188.40625 20.140625 -188.40625 C 16.265625 -188.632812 12.394531 -184.65625 8.53125 -176.46875 C 6.9375 -173.28125 5.6875 -169.640625 4.78125 -165.546875 C 1.132812 -149.390625 2.84375 -135.394531 9.90625 -123.5625 Z M 9.90625 -123.5625 "/></g></g></g><g fill="#52050a" fill-opacity="1"><g transform="translate(884.449139, 356.412304)"><g/></g></g></g></g><g transform="matrix(1, 0, 0, 1, 426, 509)"><g clip-path="url(#fdcf104c95)"><g fill="#52050a" fill-opacity="1"><g transform="translate(0.531615, 52.129488)"><g><path d="M 31.390625 -21.65625 C 33.972656 -21.65625 35.957031 -22.140625 37.34375 -23.109375 C 38.738281 -24.085938 39.4375 -25.703125 39.4375 -27.953125 C 39.4375 -30.046875 38.828125 -31.492188 37.609375 -32.296875 C 36.390625 -33.097656 34.21875 -33.5 31.09375 -33.5 L 14.78125 -33.5 L 14.78125 -21.65625 Z M 31.53125 -38.484375 C 33.53125 -38.484375 35.359375 -38.300781 37.015625 -37.9375 C 38.671875 -37.570312 40.082031 -36.984375 41.25 -36.171875 C 42.425781 -35.367188 43.34375 -34.304688 44 -32.984375 C 44.65625 -31.671875 44.984375 -30.066406 44.984375 -28.171875 C 44.984375 -23.972656 43.773438 -21.003906 41.359375 -19.265625 C 38.953125 -17.535156 35.703125 -16.671875 31.609375 -16.671875 L 14.78125 -16.671875 L 14.78125 -2.640625 C 14.78125 -2.097656 14.898438 -1.664062 15.140625 -1.34375 C 15.390625 -1.03125 15.851562 -0.875 16.53125 -0.875 L 16.53125 0 L 6.875 0 L 6.875 -0.875 C 7.5625 -0.875 8.023438 -1.03125 8.265625 -1.34375 C 8.503906 -1.664062 8.625 -2.097656 8.625 -2.640625 L 8.625 -35.84375 C 8.625 -36.382812 8.503906 -36.8125 8.265625 -37.125 C 8.023438 -37.445312 7.5625 -37.609375 6.875 -37.609375 L 6.875 -38.484375 Z M 31.53125 -38.484375 "/></g></g></g><g fill="#52050a" fill-opacity="1"><g transform="translate(57.887845, 52.129488)"><g><path d="M 10.828125 -19.234375 C 10.828125 -14.609375 12.203125 -11 14.953125 -8.40625 C 17.710938 -5.820312 21.53125 -4.53125 26.40625 -4.53125 C 31.28125 -4.53125 35.09375 -5.8125 37.84375 -8.375 C 40.601562 -10.9375 41.984375 -14.554688 41.984375 -19.234375 C 41.984375 -23.816406 40.628906 -27.410156 37.921875 -30.015625 C 35.222656 -32.628906 31.363281 -33.9375 26.34375 -33.9375 C 21.457031 -33.9375 17.648438 -32.628906 14.921875 -30.015625 C 12.191406 -27.410156 10.828125 -23.816406 10.828125 -19.234375 Z M 26.40625 -38.921875 C 29.625 -38.921875 32.585938 -38.476562 35.296875 -37.59375 C 38.003906 -36.71875 40.320312 -35.4375 42.25 -33.75 C 44.175781 -32.070312 45.6875 -30.015625 46.78125 -27.578125 C 47.875 -25.140625 48.421875 -22.359375 48.421875 -19.234375 C 48.421875 -16.210938 47.894531 -13.484375 46.84375 -11.046875 C 45.800781 -8.609375 44.316406 -6.535156 42.390625 -4.828125 C 40.460938 -3.117188 38.144531 -1.8125 35.4375 -0.90625 C 32.738281 -0.0078125 29.726562 0.4375 26.40625 0.4375 C 23.09375 0.4375 20.082031 -0.0234375 17.375 -0.953125 C 14.664062 -1.878906 12.347656 -3.195312 10.421875 -4.90625 C 8.492188 -6.613281 7.003906 -8.671875 5.953125 -11.078125 C 4.910156 -13.492188 4.390625 -16.210938 4.390625 -19.234375 C 4.390625 -22.359375 4.925781 -25.140625 6 -27.578125 C 7.070312 -30.015625 8.582031 -32.070312 10.53125 -33.75 C 12.476562 -35.4375 14.804688 -36.71875 17.515625 -37.59375 C 20.222656 -38.476562 23.1875 -38.921875 26.40625 -38.921875 Z M 26.40625 -38.921875 "/></g></g></g><g fill="#52050a" fill-opacity="1"><g transform="translate(119.267706, 52.129488)"><g><path d="M 31.609375 -21.65625 C 34.140625 -21.65625 36.113281 -22.140625 37.53125 -23.109375 C 38.945312 -24.085938 39.65625 -25.703125 39.65625 -27.953125 C 39.65625 -28.921875 39.519531 -29.757812 39.25 -30.46875 C 38.976562 -31.175781 38.523438 -31.75 37.890625 -32.1875 C 37.253906 -32.625 36.398438 -32.953125 35.328125 -33.171875 C 34.253906 -33.390625 32.890625 -33.5 31.234375 -33.5 L 15.515625 -33.5 L 15.515625 -21.65625 Z M 32.109375 -38.484375 C 36.546875 -38.484375 39.910156 -37.648438 42.203125 -35.984375 C 44.503906 -34.328125 45.65625 -31.597656 45.65625 -27.796875 C 45.65625 -24.722656 44.835938 -22.285156 43.203125 -20.484375 C 41.566406 -18.679688 38.941406 -17.535156 35.328125 -17.046875 L 43.75 -4.03125 C 44.53125 -2.851562 45.101562 -2.03125 45.46875 -1.5625 C 45.832031 -1.101562 46.429688 -0.875 47.265625 -0.875 L 47.40625 -0.875 L 47.40625 0 L 36.875 0 L 36.875 -0.875 C 37.550781 -0.875 37.960938 -0.9375 38.109375 -1.0625 C 38.253906 -1.1875 38.328125 -1.34375 38.328125 -1.53125 C 38.328125 -1.726562 38.21875 -1.984375 38 -2.296875 C 37.78125 -2.617188 37.523438 -3.023438 37.234375 -3.515625 L 28.96875 -16.671875 L 15.515625 -16.671875 L 15.515625 -2.640625 C 15.515625 -2.097656 15.632812 -1.664062 15.875 -1.34375 C 16.113281 -1.03125 16.578125 -0.875 17.265625 -0.875 L 17.265625 0 L 7.609375 0 L 7.609375 -0.875 C 8.285156 -0.875 8.742188 -1.03125 8.984375 -1.34375 C 9.234375 -1.664062 9.359375 -2.097656 9.359375 -2.640625 L 9.359375 -35.84375 C 9.359375 -36.382812 9.234375 -36.8125 8.984375 -37.125 C 8.742188 -37.445312 8.285156 -37.609375 7.609375 -37.609375 L 7.609375 -38.484375 Z M 32.109375 -38.484375 "/></g></g></g><g fill="#52050a" fill-opacity="1"><g transform="translate(180.647568, 52.129488)"><g><path d="M 3.515625 -40.375 L 4.390625 -40.375 C 4.390625 -39.695312 4.632812 -39.210938 5.125 -38.921875 C 5.613281 -38.628906 6.195312 -38.484375 6.875 -38.484375 L 37.75 -38.484375 C 39.40625 -38.484375 40.234375 -39.113281 40.234375 -40.375 L 41.109375 -40.375 L 41.109375 -31.75 L 40.234375 -31.75 C 40.234375 -32.53125 40.023438 -33.039062 39.609375 -33.28125 C 39.203125 -33.53125 38.582031 -33.65625 37.75 -33.65625 L 25.390625 -33.65625 L 25.390625 -2.640625 C 25.390625 -2.097656 25.507812 -1.664062 25.75 -1.34375 C 25.988281 -1.03125 26.453125 -0.875 27.140625 -0.875 L 27.140625 0 L 17.484375 0 L 17.484375 -0.875 C 18.648438 -0.875 19.234375 -1.460938 19.234375 -2.640625 L 19.234375 -33.65625 L 6.953125 -33.65625 C 6.117188 -33.65625 5.484375 -33.53125 5.046875 -33.28125 C 4.609375 -33.039062 4.390625 -32.53125 4.390625 -31.75 L 3.515625 -31.75 Z M 3.515625 -40.375 "/></g></g></g><g fill="#52050a" fill-opacity="1"><g transform="translate(233.90702, 52.129488)"><g><path d="M 10.828125 -19.234375 C 10.828125 -14.609375 12.203125 -11 14.953125 -8.40625 C 17.710938 -5.820312 21.53125 -4.53125 26.40625 -4.53125 C 31.28125 -4.53125 35.09375 -5.8125 37.84375 -8.375 C 40.601562 -10.9375 41.984375 -14.554688 41.984375 -19.234375 C 41.984375 -23.816406 40.628906 -27.410156 37.921875 -30.015625 C 35.222656 -32.628906 31.363281 -33.9375 26.34375 -33.9375 C 21.457031 -33.9375 17.648438 -32.628906 14.921875 -30.015625 C 12.191406 -27.410156 10.828125 -23.816406 10.828125 -19.234375 Z M 26.40625 -38.921875 C 29.625 -38.921875 32.585938 -38.476562 35.296875 -37.59375 C 38.003906 -36.71875 40.320312 -35.4375 42.25 -33.75 C 44.175781 -32.070312 45.6875 -30.015625 46.78125 -27.578125 C 47.875 -25.140625 48.421875 -22.359375 48.421875 -19.234375 C 48.421875 -16.210938 47.894531 -13.484375 46.84375 -11.046875 C 45.800781 -8.609375 44.316406 -6.535156 42.390625 -4.828125 C 40.460938 -3.117188 38.144531 -1.8125 35.4375 -0.90625 C 32.738281 -0.0078125 29.726562 0.4375 26.40625 0.4375 C 23.09375 0.4375 20.082031 -0.0234375 17.375 -0.953125 C 14.664062 -1.878906 12.347656 -3.195312 10.421875 -4.90625 C 8.492188 -6.613281 7.003906 -8.671875 5.953125 -11.078125 C 4.910156 -13.492188 4.390625 -16.210938 4.390625 -19.234375 C 4.390625 -22.359375 4.925781 -25.140625 6 -27.578125 C 7.070312 -30.015625 8.582031 -32.070312 10.53125 -33.75 C 12.476562 -35.4375 14.804688 -36.71875 17.515625 -37.59375 C 20.222656 -38.476562 23.1875 -38.921875 26.40625 -38.921875 Z M 26.40625 -38.921875 "/></g></g></g><g fill="#52050a" fill-opacity="1"><g transform="translate(295.286867, 52.129488)"><g><path d="M 42.140625 -31.609375 L 41.265625 -31.609375 C 41.265625 -32.972656 40.3125 -33.65625 38.40625 -33.65625 L 14.78125 -33.65625 L 14.78125 -22.390625 L 30.140625 -22.390625 C 31.359375 -22.390625 32.175781 -22.472656 32.59375 -22.640625 C 33.007812 -22.804688 33.21875 -23.207031 33.21875 -23.84375 L 34.09375 -23.84375 L 34.09375 -15.515625 L 33.21875 -15.515625 C 33.21875 -16.441406 32.898438 -17.015625 32.265625 -17.234375 C 31.628906 -17.453125 30.894531 -17.5625 30.0625 -17.5625 L 14.78125 -17.5625 L 14.78125 -2.640625 C 14.78125 -2.097656 14.898438 -1.664062 15.140625 -1.34375 C 15.390625 -1.03125 15.851562 -0.875 16.53125 -0.875 L 16.53125 0 L 6.875 0 L 6.875 -0.875 C 7.5625 -0.875 8.023438 -1.03125 8.265625 -1.34375 C 8.503906 -1.664062 8.625 -2.097656 8.625 -2.640625 L 8.625 -35.84375 C 8.625 -36.382812 8.503906 -36.8125 8.265625 -37.125 C 8.023438 -37.445312 7.5625 -37.609375 6.875 -37.609375 L 6.875 -38.484375 L 38.046875 -38.484375 C 39.265625 -38.484375 40.101562 -38.554688 40.5625 -38.703125 C 41.03125 -38.847656 41.265625 -39.257812 41.265625 -39.9375 L 42.140625 -39.9375 Z M 42.140625 -31.609375 "/></g></g></g><g fill="#52050a" fill-opacity="1"><g transform="translate(348.546349, 52.129488)"><g><path d="M 10.828125 -19.234375 C 10.828125 -14.609375 12.203125 -11 14.953125 -8.40625 C 17.710938 -5.820312 21.53125 -4.53125 26.40625 -4.53125 C 31.28125 -4.53125 35.09375 -5.8125 37.84375 -8.375 C 40.601562 -10.9375 41.984375 -14.554688 41.984375 -19.234375 C 41.984375 -23.816406 40.628906 -27.410156 37.921875 -30.015625 C 35.222656 -32.628906 31.363281 -33.9375 26.34375 -33.9375 C 21.457031 -33.9375 17.648438 -32.628906 14.921875 -30.015625 C 12.191406 -27.410156 10.828125 -23.816406 10.828125 -19.234375 Z M 26.40625 -38.921875 C 29.625 -38.921875 32.585938 -38.476562 35.296875 -37.59375 C 38.003906 -36.71875 40.320312 -35.4375 42.25 -33.75 C 44.175781 -32.070312 45.6875 -30.015625 46.78125 -27.578125 C 47.875 -25.140625 48.421875 -22.359375 48.421875 -19.234375 C 48.421875 -16.210938 47.894531 -13.484375 46.84375 -11.046875 C 45.800781 -8.609375 44.316406 -6.535156 42.390625 -4.828125 C 40.460938 -3.117188 38.144531 -1.8125 35.4375 -0.90625 C 32.738281 -0.0078125 29.726562 0.4375 26.40625 0.4375 C 23.09375 0.4375 20.082031 -0.0234375 17.375 -0.953125 C 14.664062 -1.878906 12.347656 -3.195312 10.421875 -4.90625 C 8.492188 -6.613281 7.003906 -8.671875 5.953125 -11.078125 C 4.910156 -13.492188 4.390625 -16.210938 4.390625 -19.234375 C 4.390625 -22.359375 4.925781 -25.140625 6 -27.578125 C 7.070312 -30.015625 8.582031 -32.070312 10.53125 -33.75 C 12.476562 -35.4375 14.804688 -36.71875 17.515625 -37.59375 C 20.222656 -38.476562 23.1875 -38.921875 26.40625 -38.921875 Z M 26.40625 -38.921875 "/></g></g></g><g fill="#52050a" fill-opacity="1"><g transform="translate(409.92621, 52.129488)"><g><path d="M 16.53125 -38.484375 L 16.53125 -37.609375 C 15.800781 -37.609375 15.328125 -37.421875 15.109375 -37.046875 C 14.890625 -36.679688 14.78125 -36.179688 14.78125 -35.546875 L 14.78125 -4.828125 L 39.359375 -4.828125 C 41.066406 -4.828125 41.921875 -5.554688 41.921875 -7.015625 L 42.796875 -7.015625 L 42.796875 1.609375 L 41.921875 1.609375 C 41.921875 0.972656 41.710938 0.546875 41.296875 0.328125 C 40.878906 0.109375 40.257812 0 39.4375 0 L 6.875 0 L 6.875 -0.875 C 7.5625 -0.875 8.023438 -1.03125 8.265625 -1.34375 C 8.503906 -1.664062 8.625 -2.097656 8.625 -2.640625 L 8.625 -35.84375 C 8.625 -36.332031 8.515625 -36.75 8.296875 -37.09375 C 8.078125 -37.4375 7.601562 -37.609375 6.875 -37.609375 L 6.875 -38.484375 Z M 16.53125 -38.484375 "/></g></g></g><g fill="#52050a" fill-opacity="1"><g transform="translate(463.185632, 52.129488)"><g><path d="M 16.96875 -38.484375 L 16.96875 -37.609375 C 16.289062 -37.609375 15.828125 -37.445312 15.578125 -37.125 C 15.335938 -36.8125 15.21875 -36.382812 15.21875 -35.84375 L 15.21875 -2.640625 C 15.21875 -2.097656 15.335938 -1.664062 15.578125 -1.34375 C 15.828125 -1.03125 16.289062 -0.875 16.96875 -0.875 L 16.96875 0 L 7.3125 0 L 7.3125 -0.875 C 8 -0.875 8.460938 -1.03125 8.703125 -1.34375 C 8.953125 -1.664062 9.078125 -2.097656 9.078125 -2.640625 L 9.078125 -35.84375 C 9.078125 -36.382812 8.953125 -36.8125 8.703125 -37.125 C 8.460938 -37.445312 8 -37.609375 7.3125 -37.609375 L 7.3125 -38.484375 Z M 16.96875 -38.484375 "/></g></g></g><g fill="#52050a" fill-opacity="1"><g transform="translate(496.10747, 52.129488)"><g><path d="M 10.828125 -19.234375 C 10.828125 -14.609375 12.203125 -11 14.953125 -8.40625 C 17.710938 -5.820312 21.53125 -4.53125 26.40625 -4.53125 C 31.28125 -4.53125 35.09375 -5.8125 37.84375 -8.375 C 40.601562 -10.9375 41.984375 -14.554688 41.984375 -19.234375 C 41.984375 -23.816406 40.628906 -27.410156 37.921875 -30.015625 C 35.222656 -32.628906 31.363281 -33.9375 26.34375 -33.9375 C 21.457031 -33.9375 17.648438 -32.628906 14.921875 -30.015625 C 12.191406 -27.410156 10.828125 -23.816406 10.828125 -19.234375 Z M 26.40625 -38.921875 C 29.625 -38.921875 32.585938 -38.476562 35.296875 -37.59375 C 38.003906 -36.71875 40.320312 -35.4375 42.25 -33.75 C 44.175781 -32.070312 45.6875 -30.015625 46.78125 -27.578125 C 47.875 -25.140625 48.421875 -22.359375 48.421875 -19.234375 C 48.421875 -16.210938 47.894531 -13.484375 46.84375 -11.046875 C 45.800781 -8.609375 44.316406 -6.535156 42.390625 -4.828125 C 40.460938 -3.117188 38.144531 -1.8125 35.4375 -0.90625 C 32.738281 -0.0078125 29.726562 0.4375 26.40625 0.4375 C 23.09375 0.4375 20.082031 -0.0234375 17.375 -0.953125 C 14.664062 -1.878906 12.347656 -3.195312 10.421875 -4.90625 C 8.492188 -6.613281 7.003906 -8.671875 5.953125 -11.078125 C 4.910156 -13.492188 4.390625 -16.210938 4.390625 -19.234375 C 4.390625 -22.359375 4.925781 -25.140625 6 -27.578125 C 7.070312 -30.015625 8.582031 -32.070312 10.53125 -33.75 C 12.476562 -35.4375 14.804688 -36.71875 17.515625 -37.59375 C 20.222656 -38.476562 23.1875 -38.921875 26.40625 -38.921875 Z M 26.40625 -38.921875 "/></g></g></g></g></g></svg>